<svg id="Layer_1" data-name="Layer 1" xmlns="http://www.w3.org/2000/svg" viewBox="0 0 205.69 46.18"><defs><style>.cls-1{fill:#b6312b;}</style></defs><title>iconmark</title><path class="cls-1" d="M25.18,10.3c1.27-.06,2.54.09,3.9,0-.16-.19-.35-.09-.4-.29,1.73-.26,3.47.38,5.19,0L33.6,10h2.7c0,.16-.19.13-.31.14l-1.3.09a16.82,16.82,0,0,0,3,0,1.52,1.52,0,0,0,.78-.07,1.4,1.4,0,0,0-.77-.08c-.38-.11-.78.08-1.14-.11a31.65,31.65,0,0,1,4.77,0h1.84a.08.08,0,0,0,0,.09c-1.51.32-3-.09-4.55.06v.14h5.85A54.51,54.51,0,0,0,50,10.18c.38,0,.14-.31.2-.47a3.22,3.22,0,0,0-.11-1.38c0-.12,0-.25,0-.37.17-.59.18-.59-.44-.59H9A9.34,9.34,0,0,1,7.2,7.14a2.53,2.53,0,0,1-1.43-.79C3.87,4.36,1.93,2.41,0,.44.1.25.26.34.38.33a6.93,6.93,0,0,0,2,0A15.14,15.14,0,0,1,5.44.09c1.1-.13,2.2.05,3.31,0C15.64,0,22.53.16,29.42.05c2.19,0,4.39.05,6.58,0,1.74,0,3.47,0,5.2,0C44.1,0,47,.05,49.88,0A7.12,7.12,0,0,1,54.3,1.35a10.25,10.25,0,0,1,4.29,6.72c.25,1.36.51,2.71.84,4a10.52,10.52,0,0,0,4.17,6,20.49,20.49,0,0,0,5.61,2.95c.39.13.81.22,1.21.31a.41.41,0,0,1,.35.48c0,1.2-.12,2.39-.08,3.58,0,1.45.06,2.91,0,4.36-.06,2.19.15,4.38.05,6.57,0,.33-.12.4-.42.39l-18,0c-.51,0-1-.11-1.52-.09-1.12.06-2.23.17-3.35.26a15.85,15.85,0,0,1-4.71-.28,8.13,8.13,0,0,1-2.49-1.22,43.76,43.76,0,0,1-5.47-4.52l-1.38-1.25a.69.69,0,0,1,.53-.08c2.09,0,4.17,0,6.26,0,3.66-.05,7.33-.06,11,0,3.88.06,7.75,0,11.63,0,.48,0,.64-.15.59-.62a8.93,8.93,0,0,1,0-1.37c0-.32-.09-.41-.41-.42-1.44,0-2.88.05-4.31.11-1.88.09-3.75.15-5.63.15s-3.8,0-5.69-.16a51,51,0,0,0-5.53-.05c-2.45.09-4.9,0-7.35-.06-1.24,0-2.49,0-3.73,0A17.15,17.15,0,0,1,27,26.44a1.44,1.44,0,0,1-.61-.38,53.07,53.07,0,0,1-4.53-5.4c-.24-.31-.18-.47.24-.5,1.6-.12,3.19,0,4.79,0,1.76,0,3.53.06,5.3.06,4.72,0,9.44-.07,14.15,0,2.74,0,5.47,0,8.2-.1.16,0,.32,0,.47,0,0,.2-.26.08-.36.22.37-.1.77.22,1.09-.15h.1c.81,0,.79,0,.83-.79,0-.42,0-.84,0-1.25s-.12-.45-.45-.44c-1.44.05-2.88.09-4.32.11-1.1,0-2.2,0-3.31,0a5.9,5.9,0,0,0-1.51.13,1.85,1.85,0,0,1-.52.06c-3.11-.24-6.23-.17-9.35-.1-2.74.07-5.48-.14-8.21-.07-2.16.05-4.32,0-6.47.12a21.27,21.27,0,0,1-4.65-.22A3.94,3.94,0,0,1,16,16.79a47.55,47.55,0,0,1-5.52-6c-.19-.22-.36-.46-.66-.83,1.24,0,2.35,0,3.46,0,4.07.08,8.14,0,12.21,0,.05.06.08.13,0,.2h-.31c-2.42.16-4.84-.09-7.28,0,.15.19.33.16.51.16.47,0,.94,0,1.42,0,1.78,0,3.57.06,5.36,0m-3.5,7.25a27.84,27.84,0,0,0,4.08.15v-.15ZM36,17.6a8,8,0,0,0,2.44,0Z"/><path class="cls-1" d="M172.92,10.08a2.41,2.41,0,0,0,.93-.06.27.27,0,0,0,.32,0c2.61-.15,5.22-.07,7.84,0,3.51,0,7,.09,10.52,0,1,0,2.07,0,3,0,.13.18.07.24,0,.31-1.62,2.05-3.36,4-5.17,5.89A6.64,6.64,0,0,1,185.33,18c-2.05,0-4.1,0-6.15-.09-2.79-.15-5.57,0-8.36,0a13.81,13.81,0,0,1-2.13-.1c.48-.15,1-.07,1.3-.16a30.87,30.87,0,0,0-3.82,0,11.36,11.36,0,0,0,2,.13c-.07.18-.19.15-.28.14-2.71-.11-5.41,0-8.11,0-3.42-.05-6.84.05-10.25-.13-.45,0-.64.08-.59.57s0,1.08,0,1.62c0,.19.09.24.25.25l.73,0c.3.28.65.1,1,.13-.08-.1-.27,0-.27-.21.35,0,.7,0,1,0,3.53.14,7.05,0,10.57,0,3.21,0,6.42-.06,9.63,0,2.84.07,5.67-.13,8.51,0,1,0,2.07,0,3.1,0,.47,0,.5.21.24.53a59.92,59.92,0,0,1-4.33,5.22,4.19,4.19,0,0,1-2.51.94,23.79,23.79,0,0,1-4.92.28c-1.7,0-3.4.08-5.11.08-2.69,0-5.39,0-8.08,0-.86,0-1.72.09-2.57.14a6.83,6.83,0,0,1-2.3,0c-.47-.13-.93.1-1.4.09-3.09-.09-6.17-.19-9.26-.26-1.11,0-1.12,0-1.13,1.11,0,.4-.13.91.07,1.17s.75.11,1.15.12c3.38,0,6.77.09,10.15,0,2.77,0,5.54,0,8.31,0,3.24-.05,6.49.13,9.73,0h.52c0,.07,0,.11,0,.13A70,70,0,0,1,166,34.91a9.16,9.16,0,0,1-3.53,1.79,14.18,14.18,0,0,1-4.5.2,58.68,58.68,0,0,0-7.5-.13c-3.4,0-6.81,0-10.21,0-1.63,0-3.27,0-4.9,0-.39,0-.53-.07-.53-.51,0-1.66.07-3.33.09-5,0-3,0-6.06-.1-9.08,0-.62.21-.81.75-.93a18,18,0,0,0,6.79-3.44,11.45,11.45,0,0,0,4.2-7.46c.36-2,.59-4.1,1.76-5.88a12.54,12.54,0,0,1,2.92-3.12A7.41,7.41,0,0,1,156.12,0c2.49,0,5,0,7.47,0l24.88.08c2.29,0,4.57-.12,6.85,0,2.43.09,4.87-.14,7.29.11,1,.11,2,.1,3.08.21l-1.54,1.58c-1.36,1.39-2.77,2.74-4.07,4.18a3.68,3.68,0,0,1-2.49,1.16,18.55,18.55,0,0,1-2.36.09l-30.64,0h-.22l-8.72,0c-.31,0-.51,0-.27.42a2.28,2.28,0,0,1,.14,1.63c-.17.7-.14.73.54.78a42.4,42.4,0,0,0,5,.11h7.68a2.79,2.79,0,0,0,1.17-.24l1.37,0H172l1,0M180,17.54c-.06,0-.16-.05-.17,0s.06.15.16.13h1.56a12.22,12.22,0,0,0,2.34-.15H180m.5-7.24c2.39.1,4.78,0,7.16-.06a1.52,1.52,0,0,0-.51-.09c-1.45-.12-2.89.1-4.34,0l-2.31-.07a26.45,26.45,0,0,0-3.88,0,31.38,31.38,0,0,0,3.88.12"/><path class="cls-1" d="M91,36c-1.51.07-3,0-4.55,0-.49,0-.53-.16-.39-.57s.21-.81.31-1.22c0-.1,0-.25.11-.28.63-.32.48-.88.42-1.4A1.39,1.39,0,0,1,87,32c.55-2,1.17-4,1.82-6,.27-.81.39-1.67.74-2.45a.18.18,0,0,1,.07.05,6.05,6.05,0,0,1-.16,1.46l.14,0c.27-.9.53-1.79.83-2.81-.46.31-.31.82-.7,1l0-.05c.83-2.85,1.66-5.69,2.48-8.54a4.58,4.58,0,0,1,2-2.89v0c-.11.4-.46.61-.71.9a4.26,4.26,0,0,0-.92,2,6,6,0,0,0-.38,1.88c.18-.63.35-1.26.53-1.9a4.45,4.45,0,0,1,2-2.64c.1-.06.41-.12.07-.32-.15-.09,0-.18.08-.2.61-.12,1.17-.54,1.83-.29-.08.31-.42.06-.57.28h.82c.14,0,.31.08.44-.06v0c.12.18.23.19.34,0l.34.08c-.1,0-.21-.07-.26.08.11,0,.21.1.29-.05.17,0,.37-.06.52.1-.14,0-.29-.11-.43.08a5.52,5.52,0,0,1,1.21.62l.11.08c.05,0,.09.1.15,0s0-.06-.07-.1l-.11-.1-.35-.4h.22A3.45,3.45,0,0,1,101.05,14l-.39-.6c-.17-.27-.26-.65-.81-.65l.54.65q1.39,2.43,2.78,4.88a16.31,16.31,0,0,0,2.24,3.2,15.68,15.68,0,0,1,2.53,4.08s0,.06,0,.09c0,.27,0,.65.31.66s.32-.37.44-.6c.8-1.45,1.61-2.9,2.37-4.38s1.55-2.89,2.36-4.3,1.44-2.71,2.33-4a4.71,4.71,0,0,1,2.85-2,4.49,4.49,0,0,1,2.79.11,4.84,4.84,0,0,1,2.85,2.74,11.9,11.9,0,0,1,.53,1.92,11.64,11.64,0,0,0,.78,2.38,17.21,17.21,0,0,1,.74,2.95c.15.74.51,1.39.63,2.12a22.15,22.15,0,0,0,.67,2.38c.24.77.49,1.53.72,2.3a27.05,27.05,0,0,1,.76,2.73,36.19,36.19,0,0,0,1.53,5.14,1.62,1.62,0,0,1,0,.2c-2.09.15-4.18.1-6.26.11-.64,0-1.29-.12-1.93-.09-.29,0-.29-.2-.33-.38a35.9,35.9,0,0,0-1-3.95c-.35-1-.6-2-.85-3-.31-1.26-.58-2.55-1-3.8a13.81,13.81,0,0,1-.39-1.69,1.41,1.41,0,0,0-.29-.66c-.45.89-.84,1.76-1.31,2.56-1.61,2.76-2.84,5.71-4.45,8.47a10.29,10.29,0,0,1-.86,1.32,3.69,3.69,0,0,1-2.67,1.39,13.11,13.11,0,0,1-2.73,0,3.93,3.93,0,0,1-2.6-2.08,24.92,24.92,0,0,1-1.38-2.48,12.88,12.88,0,0,1-.86-1.54c-.06-.19-.2-.35-.17-.59s-.38-.28-.5-.54c-.37-.84-.87-1.6-1.22-2.48a41.7,41.7,0,0,0-2-4l-.54,2.14c-.14-.07,0-.26-.17-.28s-.14.12-.17.21a1.22,1.22,0,0,0-.06.26,64.4,64.4,0,0,1-1.69,7.14c0,.17,0,.36-.27.46a.42.42,0,0,0-.15.36c.13,1.07-.49,2-.62,3,0,.12-.08.19-.2.19a21.17,21.17,0,0,1-3,0,.21.21,0,0,0,.23,0s0,0,0,0S91,35.88,91,36M87.8,30.84c.75-1.94.81-2.21.6-2.56-.21.89-.4,1.72-.6,2.56m1.92,4.75c-.54.19-1.2-.36-1.92.19.75-.12,1.39.06,1.92-.19"/><path class="cls-1" d="M90.44,39.5H100a1.3,1.3,0,0,0,1-.27,1.35,1.35,0,0,1-.11,1.46,4.12,4.12,0,0,1-1,1.39,10.24,10.24,0,0,0-1.29,1.58,11.28,11.28,0,0,0-1.54,2,.93.93,0,0,1-.94.51c-.86,0-1.74,0-2.6,0-1.39,0-2.78,0-4.17,0-1.12,0-2.24,0-3.35,0-.93,0-1.85.06-2.76,0-.41,0-.93-.18-1.27-.14-.84.12-1.66,0-2.49.08a12,12,0,0,1-2.32,0A11.06,11.06,0,0,0,75.47,46c-.33,0-.44-.16-.47-.47a29.68,29.68,0,0,1,0-5.81,4.92,4.92,0,0,0,0-1.15,39.65,39.65,0,0,1,0-4.36c0-.3,0-.62,0-.91,0-1.23-.11-2.46,0-3.69A7.59,7.59,0,0,0,75,28a33.8,33.8,0,0,1,0-4.72,13.52,13.52,0,0,0,0-1.42c0-.33.09-.41.4-.44.77-.09,1.53.05,2.29,0s1.28,0,1.92-.06c.44-.05.89.14,1.34,0,.76-.26,1.51.26,2.27,0,.13,0,.16.08.14.2a28.54,28.54,0,0,0,.12,4.53c0,.3,0,.29-.31.54-.12.1,0,.23,0,.34a13.54,13.54,0,0,1,.16,3.65c0,.71,0,1.44,0,2.14.1,1.47-.07,2.92,0,4.38a.27.27,0,0,1-.18.28.23.23,0,0,0,0,.39c.48.23-.18,1.07.61,1.11.42,0,.84,0,1.26,0,1.38,0,2.76,0,4.13,0,1.16,0,2.32,0,3.47,0,.5,0,1,.22,1.49.09a.25.25,0,0,1,.22.13c0,.17-.12.19-.24.17-.28,0-.61.13-.81-.2-.06-.09-.15,0-.24,0l-2.54.29v.06m-3.19,0c-.8-.48-1.5,0-2.21,0Zm-4.54-.42c.09.22,0,.43.18.43s.65.16.92-.13c-.32-.26-.76.23-1.1-.3M83,35.91c.09-.35-.06-.62-.07-1-.13.42-.38.71.07,1"/></svg>