<svg id="Layer_1" data-name="Layer 1" xmlns="http://www.w3.org/2000/svg" viewBox="0 0 200.8 72"><defs><style>.cls-1{fill:#b5302b;}.cls-2{fill:#f4e2e2;}</style></defs><title>textlogo</title><path class="cls-1" d="M98.5,23.6s-.2,0-.1-.1.1-.1.2-.1a16.35,16.35,0,0,1,2.2-.2,45.13,45.13,0,0,1,5.2.1,19.27,19.27,0,0,0,2.4-.1,9.63,9.63,0,0,1,1.7,0c-1.1.1-2,.1-2.9.2H107c-.7-.5-1.3.1-2,0a8.09,8.09,0,0,0-2.2,0,19.42,19.42,0,0,1-2.4.2A12,12,0,0,0,98.5,23.6Z"/><path class="cls-1" d="M60.5,23.4c.1,0,.3.1.4-.1,3.5-.3,6.9.3,10.4-.2v.1c-1,.1-1.9.1-2.9.2h-.1c-.6-.4-1.3.1-1.9,0a6.7,6.7,0,0,0-2,0,2.77,2.77,0,0,0-.9.1c-.6-.2-1.1.2-1.6.2a6.7,6.7,0,0,0-2,0c0-.1.1-.1.1-.2A.9.9,0,0,1,60.5,23.4Z"/><path class="cls-1" d="M18.6,40.4a6.89,6.89,0,0,1,2.8,3.5c-.3-.5-.6-1-.9-1.4s-.3-1-1-.9h0c0-.1,0-.2-.1-.1h0c.1-.1,0-.2-.1-.1h0c0-.1,0-.2-.1-.1h0c-.1-.4-.6-.6-.8-.9C18.4,40.3,18.5,40.4,18.6,40.4Z"/><path class="cls-1" d="M144.8,40a22.84,22.84,0,0,1,3.7,0,37.08,37.08,0,0,0-4.7.3h-.1l.1-.1h.1a.37.37,0,0,0,.3-.1A1.27,1.27,0,0,0,144.8,40Z"/><path class="cls-1" d="M104.4,48a7,7,0,0,1,1.1,3.8,12.93,12.93,0,0,0-.7-2.1c0-.4-.2-.5-.5-.7h0a3,3,0,0,0-.2-1h0C104.3,47.9,104.4,48,104.4,48Z"/><path class="cls-1" d="M16.5,39.7a14.46,14.46,0,0,0-2.9.4c-.2.1-.5.2-.6-.1a7.58,7.58,0,0,1,3-.5A1.69,1.69,0,0,1,16.5,39.7Z"/><path class="cls-1" d="M59.1,23.4c-.4.3-1,.2-1.4.3a4.05,4.05,0,0,1-1.1,0,.75.75,0,0,1-.7-.4,12.19,12.19,0,0,0,2.7,0A4.33,4.33,0,0,1,59.1,23.4Z"/><path class="cls-1" d="M97.1,23.3c-.1.3-.4.3-.6.3H95.2a.51.51,0,0,1-.5-.4A19.27,19.27,0,0,0,97.1,23.3Z"/><path class="cls-1" d="M143.5,40.1a3.89,3.89,0,0,1-1.5.2c-.2,0-.2-.2-.4-.3.1-.2.3,0,.4-.1a4.82,4.82,0,0,1,1.2,0C143.3,40,143.4,40,143.5,40.1Z"/><path class="cls-1" d="M185.1,13.3c-1,0-2,0-3,.1A7.59,7.59,0,0,1,185.1,13.3Z"/><path class="cls-1" d="M168.9,13.2v-.4c-.1-.1.1-.1.2-.1a.87.87,0,0,0,.9.4,1.27,1.27,0,0,1,.6.1c-.1.4-.3.3-.6.3s-.7-.3-1.1-.3Z"/><path class="cls-1" d="M24.9,23.4c.2-.3.5-.1.8-.1a2.16,2.16,0,0,1,1.1.1,2.92,2.92,0,0,1-.9.2C25.5,23.6,25.1,23.7,24.9,23.4Z"/><path class="cls-1" d="M22.4,45.8c-.5-.5-.6-1.2-1-1.8A4.6,4.6,0,0,1,22.4,45.8Z"/><path class="cls-1" d="M148.9,40.1A7.41,7.41,0,0,1,151,40,15.48,15.48,0,0,1,148.9,40.1Z"/><path class="cls-1" d="M31.7,23.4a9.7,9.7,0,0,1,1.7-.1c-.6.1-1.1.1-1.7.2Z"/><path class="cls-1" d="M23.6,47.8a3.39,3.39,0,0,1-.9-1.4C23,46.9,23.3,47.3,23.6,47.8Z"/><path class="cls-1" d="M105.5,52.2a2.88,2.88,0,0,1,.3,1.6A7.58,7.58,0,0,0,105.5,52.2Z"/><path class="cls-1" d="M171,13.5c-.1-.1-.4.1-.4-.2.4.1.8-.2,1.2.1A2,2,0,0,1,171,13.5Z"/><path class="cls-1" d="M24.3,49.1a4.05,4.05,0,0,1-.5-.9.1.1,0,0,0,.1-.1,2.6,2.6,0,0,1,.4,1Z"/><path class="cls-1" d="M102.6,45.2c-.3-.1-.6-.1-.6-.5C102.4,44.7,102.5,44.9,102.6,45.2Z"/><path class="cls-1" d="M17.5,40c.1.1.3,0,.3.2-.4,0-.7-.2-1.1-.1h0c.2-.2.4-.1.6-.1C17.3,39.9,17.4,40,17.5,40Z"/><path class="cls-1" d="M98.4,23.3v.2c-.2.1-.3,0-.3-.2Z"/><path class="cls-1" d="M23.8,48v.1l-.1-.1v-.1Z"/><path class="cls-1" d="M102.9,45.5c-.1-.1-.2-.1-.2-.2C102.9,45.2,102.9,45.4,102.9,45.5Z"/><path class="cls-1" d="M24.5,49.2h0v.1s-.1,0,0-.1Z"/><path class="cls-1" d="M12.1,40.5c0,.1-.1.3-.3.1C12,40.6,12,40.5,12.1,40.5Z"/><path class="cls-1" d="M12.4,40.3c-.1.1-.1.2-.2.1C12.3,40.3,12.3,40.2,12.4,40.3Z"/><path class="cls-1" d="M168.9,12.4c-.2,0-.2-.1-.2-.2S168.8,12.4,168.9,12.4Z"/><path class="cls-1" d="M12.4,40.2a.1.1,0,0,1,.1.1.1.1,0,0,0-.1.1Z"/><path class="cls-1" d="M102.7,45.3c-.1,0-.1,0-.1-.1S102.8,45.2,102.7,45.3Z"/><path class="cls-1" d="M12.2,40.4c0,.1,0,.1-.1.1A.1.1,0,0,1,12.2,40.4Z"/><path class="cls-2" d="M19.3,41.4c.1,0,.2,0,.1.1S19.3,41.5,19.3,41.4Z"/><path class="cls-1" d="M104.1,47.8s-.1-.1,0-.1v.1Z"/><path class="cls-1" d="M104.1,47.8c.1,0,.1,0,.1.1h0c-.1.1-.1,0-.1-.1Z"/><path class="cls-1" d="M18.1,40.2a.37.37,0,0,1-.3-.1A.37.37,0,0,1,18.1,40.2Z"/><path class="cls-1" d="M18.3,40.3c-.1,0-.2,0-.2-.1S18.3,40.2,18.3,40.3Z"/><path class="cls-1" d="M188.4,58c-.2.2.1.5-.1.7-.4.1-.3-.2-.3-.4a4.05,4.05,0,0,1,.5-.9C188.4,57.5,188.4,57.8,188.4,58Z"/><path class="cls-1" d="M188.6,56.6c0-.3-.2-.6-.1-.9C188.5,56,188.7,56.3,188.6,56.6Z"/><path class="cls-1" d="M20.2,42.6c1.6,2.8,3.2,5.6,4.7,8.4.1.3.4.3.6.5a19.17,19.17,0,0,1,1.8,2.2c.7,1.2,1.4,2.3,2.1,3.6.1.3,0,.6.2.9s.3.2.4,0,.2-.3.3-.5c.4-.6.4-1.5,1.1-1.9a61.9,61.9,0,0,1,3-5.7c.3-.7.8-1.3,1.1-2,.6-1.1,1.3-2.2,1.9-3.3.8-1.5,1.5-3.1,2.9-4.1A4.48,4.48,0,0,1,44,39.4a7.57,7.57,0,0,0,1.5.1,2,2,0,0,1,1.6.7,5.55,5.55,0,0,0,.8.6,4.38,4.38,0,0,1,1.7,2.3,19.73,19.73,0,0,1,.7,2.6,25.33,25.33,0,0,0,1.2,3.6c.3.9.2,2,.7,2.8v.2h0l-.1-.1h.1c-.1.1,0,.3,0,.4a8.19,8.19,0,0,1,1,3c.8,2.7,1.8,5.3,2.4,8.1.5,2.3,1.3,4.5,2,6.8H49.8a20.9,20.9,0,0,0-2.5-.1c-.3,0-.3-.2-.3-.4-.3-.8-.3-1.7-.6-2.6a51.65,51.65,0,0,1-1.6-5.2c-.4-1.8-.9-3.6-1.3-5.4-.2-.8-.4-1.6-.5-2.3-.1-.3-.2-.5-.3-.8-.6,1.1-1.1,2.2-1.7,3.3-.4.7-.8,1.5-1.2,2.2-1.4,2.7-2.7,5.5-4.2,8.1-.2.4-.4.7-.6,1.1a4.7,4.7,0,0,1-4,2.3,11.45,11.45,0,0,1-3.2-.1,2.53,2.53,0,0,1-1.8-1,7.94,7.94,0,0,1-1.4-1.8c-.5-1-1-1.9-1.6-2.9A6.92,6.92,0,0,1,22,63c-.1-.2-.3-.4-.2-.6a.35.35,0,0,0-.4-.4c-.2,0-.1-.1-.2-.2-.4-.6-.7-1.3-1.1-1.9a14.58,14.58,0,0,1-.7-1.9c-.8-1.3-1.4-2.7-2.1-4.1a.22.22,0,0,0-.2-.2,19.73,19.73,0,0,1-.7,2.6c-.2-.1.1-.4-.2-.4s-.2.2-.2.3a5.85,5.85,0,0,0-.2,1.3,3.59,3.59,0,0,1-.2,1.1c-.7,2-1,4-1.6,6-.1.5-.1,1-.6,1.3a.56.56,0,0,0-.1.7c.1.1,0,.3,0,.4-.3.9-.5,1.8-.8,2.8-.1.3-.2.4-.5.4-1.2,0-2.5.1-3.7,0a4.73,4.73,0,0,0-1.7.1c-1.3.1-2.6-.2-3.9-.1-.4,0-.4-.1-.3-.5.2-.6.3-1.2.5-1.8,0-.1,0-.3.2-.3.7-.3.5-.9.5-1.4a2.2,2.2,0,0,1,.1-.8c.8-2.6,1.5-5.1,2.3-7.7.4-1.3.9-2.7,1.3-4,.9-3.3,2-6.5,2.8-9.8a7.58,7.58,0,0,1,.6-1.6c.1-.2.2-.4.4-.3a31,31,0,0,0-1.5,5.2c.4-1.2.7-2.3,1.1-3.5a5,5,0,0,1,3.9-3.6,5.43,5.43,0,0,1,2.2,0h0a9,9,0,0,1,2.4,1.2h0c0,.1,0,.1.1.1h0c0,.1,0,.1.1.1h0c0,.1,0,.1.1.1h0A4.62,4.62,0,0,0,20.2,42.6ZM6.2,58.1h0c.5-1.6,1-3.1,1.4-4.7-.1,0-.1,0-.2-.1-.2.8-.8,1.5-.8,2.4A10,10,0,0,1,6.2,58.1Zm-.8,2.7H5.2c-.3,1.2-.5,2.4-.8,3.5A23,23,0,0,0,5.4,60.8Zm1.3,9.1v-.2c-.8.1-1.6-.4-2.2.2ZM9,48.9c.1-.5.3-1,.4-1.5A2.41,2.41,0,0,0,9,48.9ZM8.2,51c-.1.3-.1.5-.2.6a.44.44,0,0,0,0,.6A2.34,2.34,0,0,0,8.2,51Z"/><path class="cls-1" d="M176.6,13.7h10.1a.6.6,0,0,0,.4-.1,5.82,5.82,0,0,1,3.2-.4,15.94,15.94,0,0,1,3,.6,2.57,2.57,0,0,1,1.2.5c1.3,1.1,3,1.9,3.6,3.8l.6,1.8c.2.4-.1.8-.1,1.2a9.64,9.64,0,0,1,0,2.4,9.5,9.5,0,0,1-1.7,4.3,7.69,7.69,0,0,1-1.8,1.8,11.4,11.4,0,0,1-4.9,1.9,18.3,18.3,0,0,1-4.7.4h-1.4c-1.4,0-2.7.1-4,0-1.1-.1-2.2.1-3.4.1h-2.4a19.29,19.29,0,0,0-3.4,0,9.39,9.39,0,0,1-2.9,0,9.65,9.65,0,0,0-1.7,0c-.1,0-.2,0-.2-.2s-.4-.1-.5,0c-.3.3-.6.2-.9.2h-7c-.2,0-.3.1-.5,0,0-.1,0-.2.1-.2a56.33,56.33,0,0,1,3.6-4.6,34.4,34.4,0,0,0,2.8-3.6c.1-.1.2-.3.4-.3a50.48,50.48,0,0,1,5.5-.1,6.6,6.6,0,0,0,1.4-.1,33.81,33.81,0,0,1,4.5.1c2.4.2,4.7-.1,7.1-.1a4.87,4.87,0,0,1,1.2.1c.4.2.9-.1,1.3-.1a16.13,16.13,0,0,0,2.2,0,1.87,1.87,0,0,0,1.4-1,1.28,1.28,0,0,0-.6-1.4,6.9,6.9,0,0,0-2.5-.4,40.05,40.05,0,0,1-4.9,0c-.8-.1-1.6,0-2.5-.1a45.56,45.56,0,0,0-5.2.1c-2.3-.1-4.6.1-6.9-.5a10.67,10.67,0,0,1-5.7-3.3,6,6,0,0,1-.9-1.5,11.49,11.49,0,0,1-.4-6.1,8.26,8.26,0,0,1,.8-2.2.82.82,0,0,1,.5-.5c.1,0,.5-.2.2-.5-.1-.1,0-.1.1-.2a13.36,13.36,0,0,1,2.1-2c.4-.3,1-.3,1.4-.5a16.48,16.48,0,0,1,5.3-1.3,58.61,58.61,0,0,1,7.3-.3h.5l-.1.1c-.2.1-.6-.1-.6.2s.4.1.6.1c2.9-.4,5.7-.1,8.6-.3a2.62,2.62,0,0,1,1.5.2.5.5,0,0,0,.7-.1.37.37,0,0,1,.3-.1c1.9.1,3.8-.1,5.7,0,1.5.1,3.1-.1,4.6,0a.52.52,0,0,1-.2.4c-1.1,1.6-2.5,2.9-3.5,4.5a.22.22,0,0,1-.2.2c-.8,0-.8.8-1.1,1.3-.1.1-.1.3-.2.5-.5.7-1,1.3-1.5,1.9-.1.2-.3.1-.4.2-2,.2-4-.1-6-.1a14.77,14.77,0,0,0-2.1.1c-.7,0-1.4-.1-2.2-.1-.6,0-1.1.1-1.7.1h-8.3a5.08,5.08,0,0,0-1.7.3,1.08,1.08,0,0,0-.8,1.1v.6a1.29,1.29,0,0,1,.3-1.8,3.55,3.55,0,0,1,.9-.4,17,17,0,0,1,4.5-.2A8.6,8.6,0,0,0,176,10h-5a6.28,6.28,0,0,0-1.9.3,1.54,1.54,0,0,0-1,1.6,1.69,1.69,0,0,0,.8,1.7h0a3.14,3.14,0,0,0,2.1.5h2.4c.2,0,.4.1.6-.1v-.1c-.2-.1-.4,0-.6,0-.5-.1-.9.2-1.4.1a17.22,17.22,0,0,1,3.9-.4h4.2c.2,0,.5.1.7.1-1.5.1-2.9-.1-4.4.1h-.2c-.2,0-.5-.1-.7,0-.4.3-.9,0-1.4.1V14A7.73,7.73,0,0,1,176.6,13.7ZM196.5,3.5a7.35,7.35,0,0,0,1.2-1.7c-.4.1-.8-.1-1.2.1a3.08,3.08,0,0,1,.9.1,2,2,0,0,0-.9,1.5Zm-11,6.2h-5.6C181.8,10.3,183.7,9.8,185.5,9.7Zm2.9.2a17.2,17.2,0,0,0,3.2-.2C190.5,9.8,189.4,9.5,188.4,9.9Z"/><path class="cls-1" d="M104.7,49.8a16.79,16.79,0,0,1,.7,5,.37.37,0,0,0,.1.3c.9,1.3.5,2.7.3,4.1l-.1.1v-.2c0-.1,0-.1-.1-.2a5.55,5.55,0,0,1-.7,2.8.6.6,0,0,0-.1.4c0,.1,0,.3-.1.3-.6.2-.5.8-.8,1.1a9.55,9.55,0,0,1-2.1,2.4l-.6.6a8.58,8.58,0,0,1-2,1.3,27.18,27.18,0,0,1-2.5,1.1,11.7,11.7,0,0,1-2.5.7c-.8.2-1.6.3-2.3.5-.9.2-1.9,0-2.9.3a1.8,1.8,0,0,1-1.6,0c-.1-.1-.3,0-.5.1s-.4.2-.4-.1c0-.1-.2-.1-.2,0-.3.3-.6.2-.9.2a40.05,40.05,0,0,1-4.9,0c-.4,0-.7-.3-1-.3-.8,0-1.5-.2-2.3-.2a8.52,8.52,0,0,1-2.3-.3,1.7,1.7,0,0,0-.7-.1,15.66,15.66,0,0,1-3-1.2c-.4-.2-.9-.4-1.4-.6a7.19,7.19,0,0,1-2.1-1.2c-.6-.6-1.3-1.1-1.9-1.7a6.27,6.27,0,0,1-1.7-2.3,15.16,15.16,0,0,1-1.2-3.2c-.4-2.7-.9-5.3-.2-8,.3-1.2.7-2.4,1.1-3.7.1-.4.4-.5.6-.9A10.59,10.59,0,0,1,66.6,44c.1-.1.2-.2.3-.2s.3,0,.2-.3c-.1-.1.1-.2.2-.3a7.84,7.84,0,0,1,1.5-1,6.92,6.92,0,0,0,1.9-1,2.1,2.1,0,0,1,1.1-.4,11.75,11.75,0,0,1,3.6-1.2c0,.2-.2.1-.3.2s-.1.2.1.2a.37.37,0,0,0,.3-.1c1.4-.7,3-.6,4.5-.9.2,0,.5-.1.7.2h.2c.3-.5.7-.2,1-.3a7.41,7.41,0,0,1,2.1-.1,19.4,19.4,0,0,1,3.4.2c.2.1.5,0,.7,0s.4-.3.5.2c0,.3.5.1.7,0s.2-.1.4-.1c1.4.2,2.7.4,4.1.7a20,20,0,0,1,7.9,3.8c.2.1.5.2.4.6-.2.1-.2-.1-.4-.2a1.49,1.49,0,0,0-.9-.4c0-.2-.2-.3-.4-.3,0-.3-.2-.2-.4-.3.1.2.3.3.4.4s.2.2.4.3c.6.6,1.2,1.1,1.7,1.7.1.1.1.2.3.2s.1-.2.1-.3a7.1,7.1,0,0,1,1,1.4c.1.1,0,.2,0,.3-.2-.1-.1-.5-.5-.4l-.1-.1c-.1.1,0,.1,0,.1.4.7.7,1.3,1.1,2h0A3,3,0,0,0,104.7,49.8Zm-9,8.8c-.3.1-.1.3-.1.6a1.33,1.33,0,0,0,.3-.5c0-.1.1-.1.1-.2a7.1,7.1,0,0,0,.5-2.9c0-.3,0-.5-.3-.7a1,1,0,0,1-.4-.8c0-.5-.1-.9-.1-1.4a3.88,3.88,0,0,0-.6-1.7,3.53,3.53,0,0,0-1.4-1.3l-1.5-.6a8.73,8.73,0,0,0-2.2-.5,7.72,7.72,0,0,0-1.5-.2c-.6.1-1.2-.3-1.9-.1-.2,0-.4.1-.5,0h0a2.08,2.08,0,0,0-1.1-.1,13.4,13.4,0,0,0-2,.1,3.35,3.35,0,0,1-1,0,2.19,2.19,0,0,0-1.6.1,9.86,9.86,0,0,1-2.4.3,2.3,2.3,0,0,0-1.4.2,16.32,16.32,0,0,1-1.9.9,3.1,3.1,0,0,0-1.4,1.8,6.84,6.84,0,0,0-.6,2.9c.2,1.4-.2,2.9.7,4.1v.1c.1.9,1.1,1.1,1.4,1.8.5-.2.8.2,1.2.4a7.49,7.49,0,0,0,1.6.4c.6.1,1.3-.1,1.9.2-.1.1-.3.2-.2.3s.2,0,.4,0,.3-.2.5-.1c.4.1.9,0,1.3.1s.7-.2.9.2h.1a4.13,4.13,0,0,1,1.9-.2,20.83,20.83,0,0,0,2.5,0c-.1.1-.1.3,0,.3s.2-.1.3-.1.1-.2.3-.2a10.87,10.87,0,0,1,1.8-.1,5.54,5.54,0,0,0,1.8-.2,7,7,0,0,0,3.7-1.7c.3-.3.8-.7.8-1.2.1-.3.1-.7.2-1a2.53,2.53,0,0,0,.2-1.7c0-.1,0-.2.1-.2a4.73,4.73,0,0,1-.1,1.7,2,2,0,0,0-.1,1.1A.35.35,0,0,0,95.7,58.6Zm.7-17h0a1.67,1.67,0,0,0-2-.5A14.62,14.62,0,0,0,96.4,41.6ZM95,59.9c-.1.3-.4-.2-.6.2s-.6.7-.9,1.1c-.1,0-.2,0-.2.2.1,0,.2-.1.3-.1A3.76,3.76,0,0,0,95,59.9c.1,0,.2,0,.1-.1S95.1,59.8,95,59.9ZM90.3,40.3c1.2.3,1.8.4,2,.1A12.75,12.75,0,0,0,90.3,40.3ZM91.2,62c-.6-.5-1.1.1-1.5.3A9.92,9.92,0,0,0,91.2,62ZM85.3,39.7c.4.1.8.6,1.2,0Zm2.4,22.7h.9a.22.22,0,0,0,.2-.2c0-.1-.1-.1-.2,0A2,2,0,0,0,87.7,62.4Zm7.6-2.7a.52.52,0,0,0,.2-.4c0-.1-.1-.1-.2,0S95.2,59.5,95.3,59.7Z"/><path class="cls-1" d="M193.4,44.1a18,18,0,0,1,1.9,2c.1-.2.2-.3.3-.5a17,17,0,0,0,1,1.4v.2c-.2,0-.2-.3-.4-.3s-.1.1,0,.2a13.87,13.87,0,0,1,1.9,7.4,1.45,1.45,0,0,0,.2.7,2.28,2.28,0,0,1,.4,1.6,3.85,3.85,0,0,1-.2,1.9c-.5.9-.4,2.1-1,2.9a.75.75,0,0,0-.1.5c0,.2,0,.4-.3.4s-.3.3-.3.5a7.62,7.62,0,0,1-2,2.7,7.46,7.46,0,0,1-1.7,1.4,13.83,13.83,0,0,1-2.7,1.4,9.18,9.18,0,0,1-2.8.9.76.76,0,0,0-.5.2c-.1.1-.3.2-.4.1-.9-.2-1.7.5-2.6.5-1.2,0-2.4.4-3.6.4a4,4,0,0,1-1.1,0c-.5-.4-.9.1-1.3,0a8.53,8.53,0,0,0-1.6,0,12.92,12.92,0,0,1-3.4-.1,40.68,40.68,0,0,0-4.9-.5,13.27,13.27,0,0,1-4-1.2,22.88,22.88,0,0,0-2.3-1,15.05,15.05,0,0,1-1.7-1,15.37,15.37,0,0,1-1.9-1.7,6.27,6.27,0,0,1-1.7-2.3,16.59,16.59,0,0,1-1.2-3.1c-.4-2.7-.9-5.5-.2-8.3a13.52,13.52,0,0,1,1.1-3.4,9.85,9.85,0,0,1,2-3,7.27,7.27,0,0,1,.8-.9c.1-.1.2-.2.3-.2s.4,0,.2-.3c0-.1.1-.1.2-.2a5.37,5.37,0,0,1,1.6-1,7.5,7.5,0,0,0,2-1,4.18,4.18,0,0,1,1-.4,11.75,11.75,0,0,1,3.6-1.2c0,.1-.1.1-.2.2s-.1.1-.1.2.1.1.2.1.2-.1.3-.1c1.5-.7,3.1-.6,4.6-.9.1,0,.4-.1.5.2,0,.1.3.1.3,0,.2-.4.5-.2.8-.2.6,0,1.2-.1,1.9-.1a19.33,19.33,0,0,1,3.4.1,3.66,3.66,0,0,0,1.8,0c0,.2-.2.2-.1.4a.37.37,0,0,0,.3.1c1.5-.5,3,0,4.4.4.6.2,1.3.3,1.9.5.2,0,.4,0,.5.3a4.15,4.15,0,0,1-1.9-.1c1,.3,1.9.6,2.8.8-.2-.4-.8-.3-.8-.8.4.1.8.2,1.1.3a19.21,19.21,0,0,1,5,2.9,5.24,5.24,0,0,1,1,1.1,1.61,1.61,0,0,1-.7-.4c-.8-.3-1.1-.7-1.6-.7-.1-.2-.2-.3-.4-.3,0-.2-.2-.2-.4-.3.1.1.2.3.4.3C193,44,193.2,44,193.4,44.1Zm-7.2,17a4.44,4.44,0,0,0,1.1-.8c.2-.2.4-.4,0-.6,0-.3.5-.4.4-.8h0a.9.9,0,0,1-.1.5c0,.1,0,.1.1.1a.1.1,0,0,0,.1-.1c0-.3.4-.5.4-.8a1.85,1.85,0,0,0,.2-.7,6.88,6.88,0,0,0,.3-2.5.73.73,0,0,0-.2-.6,1.05,1.05,0,0,1-.5-.9c0-.4-.1-.8-.1-1.3a3.88,3.88,0,0,0-.6-1.7,3.53,3.53,0,0,0-1.4-1.3c-.5-.2-.9-.4-1.4-.6-1-.4-2.1-.4-3.1-.8-.8.3-1.6-.3-2.5,0-.6.2-1.2-.3-1.8-.1s-1.2,0-1.8.1a4,4,0,0,1-1.1,0,3.28,3.28,0,0,0-1.7.1,9.86,9.86,0,0,1-2.4.3,2.3,2.3,0,0,0-1.4.2,16.32,16.32,0,0,1-1.9.9,4.26,4.26,0,0,0-1.5,2,3.54,3.54,0,0,0-.3,1.1c-.1.3-.3.7-.2,1a16.08,16.08,0,0,1,.1,3.1,6.31,6.31,0,0,0,.8,2.3c.2.6,1,.7,1.2,1.3,0,.1.1,0,.1,0a.78.78,0,0,1,.8.2,4,4,0,0,0,1.8.7c.7.2,1.4-.1,2.1.2-.1.1-.3.2-.2.3s.2,0,.4,0,.3-.2.5-.1a3.3,3.3,0,0,0,1.4,0c.4-.1.7.2,1.2.1a10.48,10.48,0,0,1,2.5-.1,6.6,6.6,0,0,0,1.4.1l.1.1c.1.3.2.3.4.1s.1-.3.3-.2c.4.1.7-.1,1.1-.1a15.26,15.26,0,0,0,3-.3,6.6,6.6,0,0,0,2.6-1.1c.2-.1.3-.4.5-.3s0,.3-.1.4a.9.9,0,0,0-.6.6c-.2-.1-.3,0-.3.2C186,61.3,186.1,61.2,186.2,61.1Zm-4,1.1a8,8,0,0,0,1.5-.3C183.1,61.5,182.7,62,182.2,62.2Zm.7-21.9a10.1,10.1,0,0,0,1.7.3c.1,0,.2,0,.2-.1s-.1-.1-.2-.1A9.15,9.15,0,0,0,182.9,40.3Zm-3.8-.6h-1.2C178.3,39.9,178.7,40.2,179.1,39.7Zm1.3,22.6h0a1.1,1.1,0,0,0,.8,0c.1,0,.2-.1.1-.2s-.1-.1-.2-.1A1.08,1.08,0,0,1,180.4,62.3Zm5.1-.9a.73.73,0,0,0-.6.2C185.1,61.7,185.3,61.6,185.5,61.4Zm6.9-18Zm-6.7,18Z"/><path class="cls-1" d="M53.6,23.1a12.05,12.05,0,0,0,1.9,0c.1.3-.1.2-.2.2a24.52,24.52,0,0,1-2.7.2c-1.2.1-2.5.1-3.8.2-.4,0-.5-.2-.4-.5a2.08,2.08,0,0,0-.1-1.1,4.87,4.87,0,0,1-.1,1.2c0,.4.1.5.5.5h13a1.39,1.39,0,0,0,.9,0H72c.3,0,.5,0,.7-.3,0-.1.2-.1.2-.1.2,0,.1.1.1.2a4.36,4.36,0,0,1-1.1,2.7l-.6.9a11.78,11.78,0,0,1-1.9,2.5,9.24,9.24,0,0,0-1.7,2.2c0,.1-.2.1-.4.1-1.1,0-2.2-.1-3.3,0-.5.1-1.1-.2-1.6-.1-1.8.2-3.6,0-5.4.1H50.5c-2.2,0-4.5.1-6.7-.1a24.32,24.32,0,0,1-2.7,0,7.41,7.41,0,0,0-2.1-.1c-.3,0-.4-.1-.4-.4a4.84,4.84,0,0,1,0-1.7c.1-.9,0-1.8.1-2.8.2-1.5-.2-2.9-.1-4.4a8.88,8.88,0,0,0,.1-2.3c-.1-.2.4-.2.3-.5-.4-1-.1-2.1-.2-3.1-.1-2.4-.1-4.8-.1-7.2,0-1.2.2-2.5.2-3.7,0-.7-.1-1.4-.1-2.2s0-1.4-.1-2.1c0-.2,0-.3.2-.3,2,0,4.1-.1,6.1-.1s4.1.3,6.1.2A26.35,26.35,0,0,0,53.9,1a3.75,3.75,0,0,1,1.1.1c.3.1.7-.1,1-.1h4.3C61.5,1,62.8.8,64,.9c2.2.2,4.3-.1,6.5.1.9.1,1.8,0,2.8.1h.4c.3.4.4.5.1.9-.9,1.2-1.7,2.5-2.7,3.7C70,7.1,68.9,8.6,67.8,10a.91.91,0,0,1-.7.3c-1.1,0-2.2-.1-3.3-.1s-2.2.1-3.3.1c-.7,0-1.4-.1-2.1-.1H55.7a13.33,13.33,0,0,0-2,0,6,6,0,0,1-1.9,0c-.2,0-.5.1-.7-.2,0,0-.4-.2-.5.2,0,.1-.1.1-.2.1H50c-1.3,0-1.5.2-1.2,1.5v.6c3.1.1,6.2-.3,9.3-.2a.1.1,0,0,1-.1.1c-.2.1-.5-.1-.5.2s.4.1.5.1c2.8-.4,5.5-.1,8.3-.3.3,0,.7-.1,1,.2.1.1.5.2.6-.1a.37.37,0,0,1,.3-.1c1.4.1,2.8,0,4.2,0,.1.2-.1.3-.1.4a17.85,17.85,0,0,1-2,2.6c-.7.7-1.2,1.6-1.8,2.3a23.13,23.13,0,0,0-2,2.4c-.1.1-.1.2-.3.2a18,18,0,0,0-2.2.2c.1-.3.3-.1.3-.2a1.35,1.35,0,0,0-1.5,0,.73.73,0,0,1-.6.2c-2.5,0-5,0-7.5-.1-1.4,0-2.7,0-4.1-.1-.6,0-1.2.1-1.8.1a.27.27,0,0,0-.3.3v2.3c0,.3.2.3.4.3,1.4,0,2.7,0,4.1-.1C53.4,23.2,53.5,23.4,53.6,23.1Zm1.6-3.3H50a7.79,7.79,0,0,0,2.1.4C53.1,20,54.1,20,55.2,19.8Zm2.4.3c1.1-.1,2.2-.1,3.2-.2A6,6,0,0,0,57.6,20.1Zm10-1.5c.4-.6.8-1.1,1.2-1.6v-.1c0-.1-.1-.1-.1-.2l-.1.1a1.39,1.39,0,0,1-.7.8A1,1,0,0,0,67.6,18.6Zm-3,1.2a16.08,16.08,0,0,0-2.2,0A8.07,8.07,0,0,0,64.6,19.8Zm2.9-1.2Z"/><path class="cls-1" d="M92.3,23.1a10.82,10.82,0,0,0,1.8,0c.1.3-.1.2-.2.2a21.12,21.12,0,0,1-2.6.2c-1.3.1-2.5.2-3.8.2-.4,0-.5-.1-.4-.5a2.08,2.08,0,0,0-.1-1.1v1.2c0,.4.1.5.5.5H98a.6.6,0,0,0,.4-.1h12.3a.74.74,0,0,0,.8-.4c0-.1.1-.1.2-.1s.1.1.1.2a4.89,4.89,0,0,1-1.1,2.8,1.38,1.38,0,0,0-.3.4,16.55,16.55,0,0,1-2.2,3,12.82,12.82,0,0,0-1.7,2.2c-.1.2-.2.3-.5.2a8.13,8.13,0,0,0-2.2-.1c-.9.1-1.8-.2-2.7-.1-1.5.2-3.1,0-4.6.1H94.9a11.33,11.33,0,0,0-2.6.1c-.1,0-.3.1-.4,0a6.73,6.73,0,0,0-2-.1c-2.5,0-5,.1-7.5,0a13.1,13.1,0,0,1-2.8,0,6.73,6.73,0,0,0-2-.1c-.3,0-.4-.1-.4-.4a4.84,4.84,0,0,1,0-1.7,24.37,24.37,0,0,1,.1-2.7c.2-1.4-.2-2.9-.1-4.3a9.66,9.66,0,0,0,.1-2.4c-.1-.2.3-.2.3-.5-.4-3.3-.2-6.7-.3-10-.1-1.4.2-2.7.2-4.1,0-.8-.1-1.5-.1-2.3a13.4,13.4,0,0,0-.1-2,.27.27,0,0,1,.3-.3c1,0,2-.1,3,0a10.82,10.82,0,0,1,1.8,0c1.6.1,3.2.1,4.9.2a38.54,38.54,0,0,0,4.8-.2,4.73,4.73,0,0,1,1.7.1c.4.1.7-.1,1.1-.1h4.2c1.3,0,2.6-.2,3.8-.1,2.1.2,4.2-.1,6.4.1,1,.1,1.9,0,2.9.1h.3c.3.1.5.1.2.5-1,1.2-1.7,2.5-2.7,3.7-1.1,1.4-2.2,2.8-3.3,4.3a.81.81,0,0,1-.8.4c-1.1,0-2.1-.1-3.2-.1s-2.3.1-3.4.1a5.46,5.46,0,0,1-1.8-.1c-.3-.1-.6.1-.9,0H92.7a13.33,13.33,0,0,1-2,0,1.27,1.27,0,0,1-.6-.1.29.29,0,0,0-.5.1c0,.1-.2.1-.3.1H88.2a.47.47,0,0,0-.5.5c0,.5.1,1,.1,1.5,0,.2.2.2.2.1a11.33,11.33,0,0,1,2.6-.1c2.1,0,4.3-.3,6.4-.1v.1c-.2.1-.5-.1-.5.2s.4.1.5.1c2.8-.4,5.6-.1,8.3-.3a1.49,1.49,0,0,1,.9.2c.1.1.5.2.6-.1a.37.37,0,0,1,.3-.1c1.3.1,2.7,0,4,0h.3c-.4.6-.8,1.1-1.2,1.6a11.32,11.32,0,0,1-1,1.3,13.68,13.68,0,0,0-1.8,2.4l-2.1,2.4c-.1.1-.1.2-.3.2a8.58,8.58,0,0,0-2.2.2c.1-.3.3-.1.3-.2a1.35,1.35,0,0,0-1.5,0,.73.73,0,0,1-.6.2c-2.5,0-5,0-7.5-.1-1.4,0-2.7,0-4.1-.1-.6,0-1.2.1-1.8.1a.27.27,0,0,0-.3.3v2.3c0,.3.2.3.4.3,1.4,0,2.7,0,4.1-.1C92.1,23.2,92.2,23.4,92.3,23.1Zm1.2-3.3H88.7a7.87,7.87,0,0,0,2,.4C91.6,20.1,92.5,20,93.5,19.8Zm6,.1h0a26.2,26.2,0,0,0-2.8-.1c-.2,0-.3,0-.3.3C97.4,20,98.5,19.9,99.5,19.9Zm6.7-1.3c.5-.5.7-1.1,1.1-1.5C106.9,17.5,106.2,17.7,106.2,18.6Zm-2.6,1.2a10.42,10.42,0,0,0-2.5,0A10.42,10.42,0,0,0,103.6,19.8Zm2.6-1.1Z"/><path class="cls-1" d="M144.5,29.6a22.51,22.51,0,0,1-8,1.7,6.47,6.47,0,0,0-1.3.4,15.21,15.21,0,0,1-5.2.3c-1.2-.2-2.3.2-3.5,0a2.92,2.92,0,0,0-1.6.1h-.2c-.4-.4-1-.2-1.4-.2-1.5.2-3,0-4.6.1a19.22,19.22,0,0,1-2.4,0c-.3,0-.4-.1-.4-.4a9.66,9.66,0,0,1,.1-2.4c.1-.3-.1-.6-.1-.9V21.7a13.35,13.35,0,0,0,0-2,1.73,1.73,0,0,1,.1-1,1.1,1.1,0,0,0,0-.8,21.75,21.75,0,0,1,0-5.1.27.27,0,0,1,.3-.3,24.58,24.58,0,0,0,2.8-.2c.9,0,1.7.4,2.5.1.6.5,1.2-.1,1.9,0a8.09,8.09,0,0,0,2.2,0c.4,0,.5.1.5.5,0,2,.2,4,.1,6-.1,1-.1,2-.2,3,0,.3.1.6.1.9s.1.1.3.1a4.87,4.87,0,0,0,1.2-.1c1.5,0,3-.1,4.5,0,1.1.1,2.2,0,3.2.2a6.76,6.76,0,0,0,3.7-.6,8.51,8.51,0,0,0,1.7-.6,6.5,6.5,0,0,0,2.6-2.6,6.59,6.59,0,0,0,.5-3.4,4,4,0,0,0-1.2-2.8,7.55,7.55,0,0,0-2.6-2.1,10.32,10.32,0,0,0-4.2-.7c-1.8,0-3.7,0-5.5-.1s-3.5,0-5.2,0c-1.3,0-2.6,0-3.8-.1a28.05,28.05,0,0,1-4.1,0,1.7,1.7,0,0,1-.7-.1.55.55,0,0,0-.8.2c-.1.2-.3.1-.5,0,.8-1,1.4-2.1,2.2-3a26.91,26.91,0,0,0,2.6-3.3c.6-.8,1.2-1.7,1.9-2.5.1-.1.2-.2.3-.2,1.5-.1,2.9-.1,4.4-.1,0,.1,0,.1-.1.1s-.5,0-.4.2.3.1.5.1c2.3-.4,4.7-.1,7-.3a2,2,0,0,1,1.3.2.29.29,0,0,0,.5-.1c0-.1.2-.1.3-.1a28.1,28.1,0,0,1,5,.4,13.11,13.11,0,0,1,4.8,1.7c.3.2.7.3,1,.5a.74.74,0,0,1,.6.6c.1.4.7.4,1.1.5.2.1.5.1.6.3a12.64,12.64,0,0,1,4.3,5.4,13.86,13.86,0,0,1,.9,3.5,15.17,15.17,0,0,1-2,10c-.3.5-.7.9-1,1.4,0,.1-.1.2-.2.1a6,6,0,0,1,.6-1.1,5.12,5.12,0,0,0,1-2.1,2.51,2.51,0,0,0,.6-1.4,8.43,8.43,0,0,0-.6,1.4,9.13,9.13,0,0,0-.8,1.3c-.5.7-1,1.4-1.5,2-.1.1-.2.1-.1.3s.2.1.3,0l.1.1c-.6.6-1.3,1.2-1.9,1.8a.37.37,0,0,1-.3.1c.1-.3.4-.3.5-.6a.1.1,0,0,1,.1-.1l.1-.1c-.1-.1-.1,0-.1,0l-.1.1c-.3.2-.7.4-.8.8a.45.45,0,0,1-.4.3c0-.1.1-.1.1-.2l.1-.1c-.1-.1-.1,0-.1,0l-1.5.9s-.2,0-.1.1.1,0,.2-.1a2.35,2.35,0,0,1,.8-.2v.2h0c-.1,0-.2.1-.3.2a14.09,14.09,0,0,1-4.4,1.8h0c-1.1-.1-2.1.5-3.1.6a2.72,2.72,0,0,1-.9,0h0a21.27,21.27,0,0,0,7-1.8c.3-.1.6-.1.6-.6-.1,0-.2,0-.2.1A4.79,4.79,0,0,0,144.5,29.6ZM153,12a15.54,15.54,0,0,1,.7,3.1A3.74,3.74,0,0,0,153,12Zm-3-4.9a17.41,17.41,0,0,0,1.2,1.4c.1.1.2.2.3.1s0-.2-.1-.2A17.88,17.88,0,0,0,150,7.1Zm-7.6-4.4c.6.2,1.1.8,1.9.5A13.32,13.32,0,0,0,142.4,2.7Zm11.5,14c-.1-.3.2-.6-.1-.9C153.7,16.2,153.6,16.5,153.9,16.7Zm-.6,3.4V20s-.1.1,0,.1c-.1,0-.1.1,0,0Zm-.1.4h0c-.1-.1-.1,0,0,0Zm-.1.3Zm-7.6,8.4Z"/><path class="cls-1" d="M143.8,40.4h7.5q.45,0,.6-.6c.2.4.4.7.3,1a3,3,0,0,1-.7,1.5c-.5.6-.7,1.4-1.3,1.8-.9.6-1.2,1.6-1.9,2.4a10.8,10.8,0,0,0-1.6,2c-.2.4-.7.2-1.1.2h-3a26.15,26.15,0,0,1-2.8,0H137c-.5,0-.6.1-.5.6,0,.1.1.2,0,.3-.4,1,.1,2.1,0,3.1a1.27,1.27,0,0,1-.1.6,5.92,5.92,0,0,0,.1,1.9,15.48,15.48,0,0,1-.1,2.2,8.53,8.53,0,0,1,0,1.6,12,12,0,0,0,0,1.9,12.1,12.1,0,0,0,.1,1.9,9.63,9.63,0,0,1,0,1.7c-.4,1.7.1,3.5.1,5.2,0,.5-.1.7-.6.6-.8-.1-1.5.1-2.3,0s-1.8-.1-2.6-.2a14.15,14.15,0,0,0-2.9.2,5.92,5.92,0,0,1-1.9-.1c-.2,0-.2-.2-.2-.3,0-1.2,0-2.3.1-3.5a8.6,8.6,0,0,0-.1-1.6,1.18,1.18,0,0,1,.1-1c.1-.1,0-.3,0-.4a18.73,18.73,0,0,1,0-4.1c.1-1-.2-1.9-.1-2.9.1-1.7-.1-3.5.1-5.2a8.31,8.31,0,0,0-.1-2.2.27.27,0,0,0-.3-.3,16.15,16.15,0,0,0-2.2,0,4.82,4.82,0,0,1-1.2,0,.6.6,0,0,1-.4-.1.19.19,0,0,0-.3,0,3.07,3.07,0,0,1-2.1.2c-.2-.1-.3,0-.5,0h-2.6a26.35,26.35,0,0,0-2.8.2h-2.3c.3-.4.7-.8,1-1.2l.1-.1c.5.4.6-.2.7-.4.7-1.5,2-2.7,2.9-4.2.2-.2.3-.6.7-.6l.2-.2c.2-1,1.1-1.6,1.5-2.4.1-.2.3-.1.4-.1,1.3.1,2.7-.1,4,.1a4.82,4.82,0,0,0,1.2,0c.2,0,.3,0,.4.1.3.4.6.2.9,0a.52.52,0,0,1,.4-.2c1.1.1,2.2-.2,3.3,0a22.55,22.55,0,0,0,2.6,0q3.9.15,7.8,0a10.87,10.87,0,0,1,1.8.1c-1.2.3-2.4.3-3.6.5a14.64,14.64,0,0,0-2.1,0,14.7,14.7,0,0,0,2.1,0c2,0,4,.1,5.9,0Zm-13.2,0h2.9C132.5,39.8,131.5,40.3,130.6,40.4Zm-1.8,0v-.2c-.7.1-1.4.1-2,.2A13.33,13.33,0,0,0,128.8,40.4Zm-6.2-.2c-.4-.1-.8.1-1.2.1C121.8,40.4,122.2,40.6,122.6,40.2Zm2,.2h1.1A4,4,0,0,0,124.6,40.4Z"/><path class="cls-1" d="M26.9,23.6c.2-.3.6-.1.8-.2a14.46,14.46,0,0,1,3.6,0c-1.4-.1-2.9.2-4.3.2v.2h6.2c.3,0,.8.3.9-.4,0,0,.3,0,.3.2a2,2,0,0,1-.2,1.7,8,8,0,0,1-1.3,1.9c-.8.6-1.1,1.6-1.9,2.2-.1.1-.1.2-.2.3s-.1.4-.4.4a.32.32,0,0,0-.3.3,2.44,2.44,0,0,1-2.9,1.7,11.11,11.11,0,0,1-2.6-.1c-.2-.1-.4,0-.6,0H21.1a20.85,20.85,0,0,0-2.5,0h-.4a1.4,1.4,0,0,0-1.1,0,4.3,4.3,0,0,1-1.6,0,13.09,13.09,0,0,0-2.8,0c-.5,0-1-.3-1.5-.1-.2-.5-.5,0-.7-.1-1.8,0-3.6.2-5.4.2a8.13,8.13,0,0,0-2.2-.1c-.4.1-.5-.1-.6-.6a39.34,39.34,0,0,1-.2-4.9,9,9,0,0,1,.2-2.3,4.88,4.88,0,0,0-.1-1.7,13.33,13.33,0,0,1,0-2V17.9a16.05,16.05,0,0,1,0-3.1,2.13,2.13,0,0,0,0-.8,13.73,13.73,0,0,1,.2-3.5.75.75,0,0,0-.1-.5,49.93,49.93,0,0,1,0-6.7V1.9c0-.3.1-.4.4-.4a16.13,16.13,0,0,0,2.2,0,10.07,10.07,0,0,0,3-.1h.2a4.3,4.3,0,0,0,1.6,0c.7-.3,1.5.1,2.3.1.2,0,.5-.2.7,0s-.1.5-.1.7c.1.4-.1.9.1,1.3a4,4,0,0,1,0,1.1,21.66,21.66,0,0,1,.1,3.6c-.1,0,0-.3-.3-.3s-.1.3-.1.4c.4,1.5.1,3.1.3,4.6a.6.6,0,0,1-.1.4c-.2.1-.3.3,0,.4.1,0,.1.2.1.3-.1.9.1,1.8,0,2.7s.1,2.1-.1,3.1a2.05,2.05,0,0,0,0,1.1c0,.2,0,.2-.2.3s-.2.3-.1.5a1.68,1.68,0,0,1,.3,1.2c-.1.2.2.2.3.2a17.7,17.7,0,0,0,2.3.1H16c2.4.1,4.9.1,7.3,0a6.15,6.15,0,0,1,1.4.1c-.8.4-1.7.1-2.4.5a24.32,24.32,0,0,0,2.7,0,8.55,8.55,0,0,0,1.6,0C26.7,23.8,26.9,23.8,26.9,23.6Zm-9.4.2a3.41,3.41,0,0,0-2.8,0Zm-4.3-.2c-.4-.3-1,.4-1.3-.3.1.2-.1.4.1.5A1.72,1.72,0,0,0,13.2,23.6Zm-1-4.3a.75.75,0,0,0-.1-.8C11.8,18.8,12,19.1,12.2,19.3ZM12,22.4a7.35,7.35,0,0,0,0-1.5A3.75,3.75,0,0,0,12,22.4Z"/></svg>