<?xml version="1.0" encoding="utf-8"?>
<!-- Generator: Adobe Illustrator 23.0.5, SVG Export Plug-In . SVG Version: 6.00 Build 0)  -->
<svg version="1.1" id="Layer_1" xmlns="http://www.w3.org/2000/svg" xmlns:xlink="http://www.w3.org/1999/xlink" x="0px" y="0px"
	 viewBox="0 0 61.79 39.93" style="enable-background:new 0 0 61.79 39.93;" xml:space="preserve">
<style type="text/css">
	.st0{fill:#B6312B;}
	.st1{fill:#FFFFFF;}
	.st2{fill:#3E3C37;}
	.st3{fill:#F5E4E4;}
</style>
<g>
	<path class="st0" d="M7.48,3.06c0.38-0.02,0.76,0.03,1.16-0.01C8.59,2.99,8.54,3.02,8.52,2.96c0.51-0.08,1.03,0.11,1.54-0.01
		c-0.02,0.01-0.05,0.01-0.08,0.03h0.8c-0.02,0.05-0.06,0.04-0.09,0.04c-0.13,0.01-0.26,0.02-0.39,0.03c0.3,0.02,0.6,0.04,0.9,0.01
		c0.07,0,0.15,0.02,0.23-0.02c-0.08-0.05-0.16-0.02-0.23-0.02c-0.11-0.03-0.23,0.02-0.34-0.03c0.47-0.07,0.95-0.01,1.42-0.01
		c0.18,0,0.36,0,0.55,0C12.82,2.98,12.82,2.99,12.82,3c-0.45,0.1-0.9-0.03-1.35,0.02c0,0.01,0,0.03,0,0.04h1.58
		c0.05,0,0.11,0,0.16,0c0.55,0.03,1.1-0.01,1.65-0.04c0.11-0.01,0.04-0.09,0.06-0.14c0-0.14,0.03-0.28-0.03-0.41
		c0-0.04,0-0.07,0.01-0.11c0.05-0.18,0.05-0.18-0.13-0.18c-4.03,0-8.06,0-12.09,0c-0.18,0-0.36-0.03-0.54-0.07
		c-0.17-0.03-0.3-0.11-0.42-0.24C1.15,1.3,0.57,0.71,0,0.13C0.03,0.07,0.08,0.1,0.11,0.1c0.2,0,0.41,0.05,0.59-0.01
		c0.31-0.1,0.61-0.02,0.91-0.06C1.94-0.01,2.27,0.04,2.6,0.03c2.05-0.05,4.1,0.01,6.14-0.02C9.39,0,10.05,0.03,10.7,0.02
		c0.52-0.01,1.03,0,1.55-0.01c0.86-0.02,1.72,0,2.58-0.01C15.3,0,15.73,0.11,16.14,0.4c0.7,0.5,1.12,1.17,1.27,2
		c0.07,0.4,0.15,0.81,0.25,1.2c0.18,0.75,0.62,1.33,1.24,1.79c0.51,0.38,1.06,0.67,1.67,0.88c0.12,0.04,0.24,0.07,0.36,0.09
		c0.08,0.02,0.1,0.06,0.1,0.14C21.02,6.85,21,7.21,21.01,7.56c0.01,0.43,0.02,0.87,0.01,1.3c-0.02,0.65,0.04,1.3,0.02,1.95
		c0,0.1-0.04,0.12-0.13,0.12c-1.78,0-3.56,0-5.33-0.01c-0.15,0-0.3-0.03-0.45-0.03c-0.33,0.02-0.66,0.05-0.99,0.08
		c-0.47,0.04-0.94,0.02-1.4-0.08c-0.27-0.06-0.51-0.21-0.74-0.36c-0.6-0.38-1.1-0.87-1.63-1.34c-0.13-0.12-0.27-0.24-0.41-0.37
		C10,8.77,10.06,8.79,10.1,8.79c0.62,0.01,1.24,0,1.86-0.01c1.09-0.01,2.18-0.02,3.27,0c1.15,0.02,2.3,0.02,3.45,0
		c0.14,0,0.19-0.04,0.18-0.18c-0.01-0.13-0.02-0.27-0.01-0.41c0-0.1-0.02-0.12-0.12-0.13c-0.43-0.01-0.85,0.01-1.28,0.03
		c-0.56,0.02-1.12,0.04-1.67,0.04c-0.56,0-1.13-0.01-1.69-0.05c-0.55-0.04-1.09-0.04-1.64-0.01c-0.73,0.03-1.46-0.01-2.18-0.02
		C9.89,8.05,9.52,8.07,9.15,8.05C8.76,8.03,8.39,7.96,8.01,7.86C7.94,7.84,7.88,7.79,7.83,7.74c-0.51-0.49-0.91-1.06-1.35-1.6
		C6.41,6.05,6.43,6,6.56,5.99c0.47-0.04,0.95,0,1.42,0C8.5,5.98,9.03,6,9.55,6c1.4,0,2.8-0.02,4.21-0.01c0.81,0.01,1.62,0,2.44-0.03
		c0.05,0,0.09,0.01,0.14,0.01C16.33,6.04,16.26,6,16.23,6.04c0.11-0.03,0.23,0.07,0.32-0.04c0.01,0,0.02,0,0.03,0
		c0.24,0,0.23,0,0.25-0.23c0.01-0.13,0.01-0.25,0.01-0.37c0.01-0.11-0.04-0.13-0.13-0.13c-0.43,0.01-0.85,0.03-1.28,0.03
		c-0.33,0-0.66,0-0.99-0.01c-0.15,0-0.3,0-0.45,0.04c-0.05,0.01-0.1,0.02-0.15,0.02c-0.93-0.07-1.85-0.05-2.78-0.03
		c-0.81,0.02-1.63-0.04-2.44-0.02C7.98,5.31,7.34,5.31,6.7,5.33C6.23,5.35,5.78,5.35,5.32,5.26C5.1,5.23,4.91,5.13,4.75,4.99
		C4.13,4.46,3.62,3.83,3.11,3.21C3.05,3.14,3,3.07,2.91,2.96c0.37,0,0.7-0.01,1.03,0c1.21,0.02,2.42,0.02,3.63-0.01
		c0.01,0.02,0.02,0.04,0,0.06c-0.03,0-0.06,0-0.09,0C6.76,3.06,6.04,2.98,5.32,3.02c0.05,0.06,0.1,0.05,0.15,0.05
		c0.14,0,0.28,0,0.42,0C6.42,3.07,6.95,3.09,7.48,3.06 M6.44,5.21c0.4,0.04,0.81,0.06,1.21,0.05c0-0.02,0-0.03,0-0.05H6.44z
		 M10.7,5.23c0.24,0.03,0.48,0.05,0.72,0H10.7z"/>
	<path class="st0" d="M51.39,3c0.09,0.02,0.19,0,0.28-0.02C51.7,3,51.73,2.99,51.76,2.97c0.78-0.04,1.55-0.02,2.33-0.01
		c1.04,0.01,2.09,0.03,3.13,0c0.31-0.01,0.61,0,0.9,0c0.04,0.05,0.02,0.07,0,0.09c-0.48,0.61-1,1.19-1.54,1.75
		c-0.42,0.44-0.95,0.54-1.51,0.55c-0.61,0.01-1.22,0-1.83-0.03c-0.83-0.04-1.66-0.01-2.48,0.01c-0.21,0-0.42,0-0.64-0.03
		c0.14-0.04,0.29-0.02,0.39-0.05c-0.38-0.04-0.81-0.02-1.13-0.01c0.12,0.04,0.35,0.02,0.59,0.04c-0.02,0.05-0.06,0.04-0.08,0.04
		c-0.8-0.03-1.61,0-2.41-0.01c-1.02-0.02-2.03,0.01-3.05-0.04c-0.13-0.01-0.19,0.03-0.18,0.17c0.02,0.16,0.02,0.32,0.02,0.48
		c0,0.06,0.03,0.07,0.07,0.07c0.07,0,0.15,0.01,0.22,0.01c0.09,0.08,0.19,0.03,0.3,0.04C44.83,6,44.78,6.03,44.78,5.97
		c0.1,0,0.21,0,0.31,0c1.05,0.04,2.09,0.01,3.14,0.01c0.95,0,1.91-0.02,2.86,0c0.84,0.02,1.69-0.04,2.53-0.01
		c0.31,0.01,0.61-0.01,0.92,0c0.14,0.01,0.15,0.06,0.07,0.16C54.2,6.67,53.8,7.22,53.33,7.7c-0.21,0.21-0.49,0.23-0.75,0.28
		c-0.48,0.09-0.97,0.09-1.46,0.08c-0.51-0.01-1.01,0.02-1.52,0.03c-0.8,0-1.6-0.01-2.4,0c-0.25,0-0.51,0.03-0.76,0.04
		c-0.23,0.01-0.45,0.05-0.68-0.01c-0.14-0.04-0.28,0.03-0.42,0.03c-0.92-0.03-1.83-0.06-2.75-0.08c-0.33-0.01-0.33,0-0.34,0.33
		c0,0.12-0.04,0.27,0.02,0.35c0.06,0.08,0.22,0.03,0.34,0.04c1.01,0.01,2.01,0.03,3.02,0.01c0.82-0.01,1.65,0.01,2.47,0
		c0.96-0.01,1.93,0.04,2.89,0c0.05,0,0.1,0,0.16,0c0,0.02,0,0.03,0,0.04c-0.59,0.53-1.15,1.09-1.8,1.55
		c-0.32,0.23-0.65,0.46-1.05,0.53c-0.44,0.08-0.89,0.11-1.34,0.06c-0.74-0.1-1.49-0.04-2.23-0.04c-1.01,0-2.02,0-3.03,0
		c-0.48,0-0.97,0-1.45,0c-0.12,0-0.16-0.02-0.16-0.15c0.01-0.49,0.02-0.99,0.02-1.48c0.01-0.9-0.01-1.8-0.03-2.7
		c0-0.18,0.06-0.24,0.22-0.28c0.75-0.18,1.41-0.55,2.02-1.02c0.73-0.56,1.09-1.32,1.25-2.22c0.11-0.6,0.17-1.22,0.52-1.75
		c0.24-0.36,0.53-0.66,0.87-0.93C45.39,0.07,45.87,0,46.39,0c0.74,0,1.48,0,2.22,0c2.47,0.01,4.93,0.02,7.39,0.02
		c0.68,0,1.36-0.04,2.03-0.01c0.72,0.03,1.45-0.04,2.17,0.03c0.3,0.03,0.59,0.03,0.91,0.06c-0.16,0.17-0.31,0.32-0.46,0.47
		c-0.41,0.41-0.82,0.81-1.21,1.24C59.25,2.05,59,2.13,58.72,2.16c-0.23,0.03-0.47,0.02-0.7,0.02c-3.03,0-6.07,0-9.1,0.01h-0.06
		c-0.86,0-1.73,0-2.59-0.01c-0.09,0-0.15-0.01-0.08,0.12c0.08,0.15,0.08,0.32,0.04,0.49c-0.05,0.21-0.04,0.22,0.16,0.23
		c0.5,0.04,1,0.06,1.5,0.03c0.06,0,0.13,0,0.19,0c0.7,0,1.39,0,2.09,0c0.12,0,0.24-0.01,0.34-0.07L50.91,3c0.02,0,0.05,0,0.07,0
		c0.04,0,0.08,0,0.12,0C51.2,3,51.29,3,51.39,3 M53.49,5.21c-0.02-0.01-0.05-0.02-0.05,0c-0.01,0.03,0.02,0.04,0.05,0.04l0.46,0
		c0.23,0.02,0.46-0.02,0.69-0.04h-0.7C53.79,5.21,53.64,5.21,53.49,5.21 M53.63,3.06c0.71,0.03,1.42,0.01,2.13-0.02
		c-0.05-0.02-0.1-0.02-0.15-0.03c-0.43-0.03-0.86,0.03-1.29,0.02c-0.23-0.01-0.46-0.01-0.68-0.02c-0.38-0.02-0.77-0.02-1.16,0.02
		C52.86,3.1,53.25,3.03,53.63,3.06"/>
	<path class="st0" d="M27.04,10.71c-0.45,0.02-0.9,0.01-1.35-0.01c-0.15-0.01-0.16-0.05-0.12-0.17c0.04-0.12,0.06-0.24,0.09-0.36
		c0.01-0.03,0.01-0.07,0.03-0.08c0.19-0.1,0.14-0.26,0.12-0.42c-0.01-0.06,0.02-0.1,0.03-0.15c0.16-0.6,0.35-1.2,0.54-1.79
		c0.08-0.24,0.11-0.5,0.22-0.73c0.01,0.01,0.01,0.01,0.02,0.02c0.02,0.15-0.03,0.29-0.05,0.43c0.01,0,0.03,0.01,0.04,0.01
		c0.08-0.27,0.16-0.53,0.25-0.84c-0.14,0.09-0.09,0.25-0.21,0.3c-0.01,0-0.01-0.01-0.02-0.01c0.25-0.85,0.49-1.69,0.74-2.54
		c0.1-0.35,0.27-0.66,0.59-0.86l0,0c-0.03,0.12-0.14,0.18-0.21,0.27c-0.14,0.17-0.23,0.37-0.28,0.58c-0.04,0.19-0.13,0.36-0.11,0.56
		c0.05-0.19,0.11-0.38,0.16-0.57c0.11-0.33,0.29-0.61,0.6-0.79c0.03-0.02,0.12-0.03,0.02-0.09c-0.04-0.03-0.01-0.05,0.02-0.06
		c0.18-0.04,0.35-0.16,0.54-0.09c-0.02,0.09-0.13,0.02-0.17,0.08h0.24c0.04,0,0.09,0.02,0.13-0.02l0-0.01c0.03,0.05,0.07,0.05,0.1,0
		c0.03,0.01,0.07,0.02,0.1,0.02c-0.03,0-0.06-0.02-0.08,0.02c0.03,0.02,0.06,0.03,0.09-0.01c0.05,0.01,0.11-0.02,0.15,0.03
		c-0.04,0-0.08-0.03-0.13,0.02c0.13,0.05,0.25,0.11,0.36,0.18c0.01,0.01,0.02,0.02,0.03,0.02c0.01,0.01,0.03,0.03,0.04,0.01
		c0,0-0.01-0.02-0.02-0.03c-0.01-0.01-0.02-0.02-0.03-0.03c-0.03-0.04-0.07-0.08-0.1-0.12l0.06,0c0.24,0.16,0.46,0.34,0.52,0.65
		c-0.04-0.06-0.08-0.12-0.12-0.18c-0.05-0.08-0.08-0.19-0.24-0.19c0.07,0.08,0.11,0.14,0.16,0.19c0.28,0.48,0.55,0.97,0.83,1.45
		c0.19,0.34,0.39,0.66,0.66,0.95c0.33,0.35,0.54,0.78,0.75,1.21c0,0.01,0.01,0.02,0.01,0.03c0.01,0.08-0.01,0.19,0.09,0.19
		c0.07,0,0.1-0.11,0.13-0.18c0.24-0.43,0.48-0.86,0.7-1.3c0.22-0.43,0.46-0.86,0.7-1.28c0.23-0.39,0.43-0.81,0.69-1.18
		c0.21-0.3,0.49-0.51,0.85-0.6c0.28-0.07,0.58-0.08,0.83,0.03c0.36,0.16,0.7,0.39,0.85,0.81C37,4.32,37.06,4.5,37.09,4.7
		c0.04,0.25,0.15,0.48,0.23,0.71c0.11,0.28,0.16,0.59,0.22,0.88c0.04,0.22,0.15,0.41,0.19,0.63c0.04,0.24,0.13,0.47,0.2,0.71
		C38,7.85,38.08,8.07,38.15,8.3c0.08,0.27,0.18,0.54,0.23,0.81c0.1,0.53,0.28,1.03,0.45,1.53c0.01,0.02,0.01,0.04,0.01,0.06
		c-0.62,0.05-1.24,0.03-1.86,0.03c-0.19,0-0.38-0.04-0.58-0.03c-0.09,0-0.09-0.06-0.1-0.11c-0.09-0.39-0.18-0.79-0.31-1.17
		c-0.1-0.29-0.18-0.59-0.25-0.9c-0.09-0.38-0.17-0.76-0.29-1.13c-0.05-0.16-0.08-0.33-0.12-0.5c-0.01-0.07-0.03-0.13-0.09-0.2
		C35.11,6.96,35,7.22,34.86,7.46c-0.48,0.82-0.84,1.7-1.32,2.51c-0.08,0.13-0.16,0.27-0.26,0.39c-0.21,0.25-0.46,0.39-0.79,0.41
		c-0.27,0.02-0.54,0.04-0.81,0c-0.38-0.05-0.58-0.34-0.77-0.62c-0.16-0.23-0.28-0.49-0.41-0.74c-0.08-0.15-0.2-0.29-0.26-0.46
		c-0.02-0.06-0.06-0.1-0.05-0.18c0.02-0.1-0.11-0.08-0.15-0.16c-0.11-0.25-0.26-0.48-0.36-0.74c-0.16-0.4-0.39-0.78-0.61-1.18
		c-0.06,0.22-0.11,0.43-0.16,0.64c-0.04-0.02-0.01-0.08-0.05-0.08c-0.05-0.01-0.04,0.04-0.05,0.06c-0.01,0.02-0.01,0.05-0.02,0.08
		c-0.09,0.73-0.34,1.41-0.5,2.12c-0.01,0.05-0.02,0.11-0.08,0.14c-0.03,0.01-0.05,0.07-0.05,0.11c0.04,0.32-0.15,0.58-0.18,0.88
		c0,0.04-0.02,0.06-0.06,0.06C27.62,10.69,27.33,10.76,27.04,10.71c0.02,0.01,0.05,0.01,0.07-0.01c0,0-0.01-0.01-0.01-0.01
		C27.07,10.68,27.04,10.66,27.04,10.71 M26.09,9.17c0.22-0.58,0.24-0.66,0.18-0.76C26.21,8.67,26.15,8.92,26.09,9.17 M26.66,10.58
		c-0.16,0.06-0.36-0.11-0.57,0.06C26.32,10.6,26.51,10.65,26.66,10.58"/>
	<path class="st0" d="M26.88,11.74h1.45c0.46,0,0.92,0,1.38,0c0.11,0,0.21,0,0.29-0.08c0.1,0.16,0.03,0.31-0.03,0.44
		c-0.08,0.15-0.17,0.31-0.3,0.41c-0.16,0.13-0.26,0.31-0.38,0.47c-0.16,0.19-0.34,0.36-0.46,0.58c-0.06,0.11-0.15,0.15-0.28,0.15
		c-0.26,0.01-0.52,0.01-0.77,0.01c-0.41,0-0.83,0-1.24-0.01c-0.33-0.01-0.66,0.01-0.99-0.01c-0.28-0.01-0.55,0.02-0.82,0
		c-0.12-0.01-0.28-0.06-0.38-0.04c-0.25,0.03-0.5,0-0.74,0.02c-0.23,0.02-0.46,0.03-0.69,0.01c-0.16-0.01-0.32-0.03-0.49-0.02
		c-0.1,0.01-0.13-0.05-0.14-0.14c-0.05-0.58-0.07-1.15,0-1.72c0.01-0.11,0-0.23-0.01-0.34c-0.06-0.43,0-0.86-0.01-1.3
		c0-0.09-0.01-0.18-0.01-0.27c0.01-0.37-0.03-0.73,0.01-1.1c0.02-0.16,0.02-0.33,0.01-0.49c-0.05-0.47-0.03-0.93-0.01-1.4
		c0.01-0.14,0.02-0.28,0.01-0.42c-0.01-0.1,0.03-0.12,0.12-0.13c0.23-0.03,0.45,0.02,0.68,0.01c0.19,0,0.38,0,0.57-0.02
		c0.13-0.01,0.26,0.04,0.4,0c0.22-0.08,0.45,0.08,0.67,0.01c0.04-0.01,0.05,0.02,0.04,0.06c-0.05,0.45,0.02,0.9,0.03,1.34
		c0,0.09,0,0.09-0.09,0.16c-0.04,0.03-0.01,0.07,0,0.1c0.1,0.36,0.05,0.73,0.05,1.09c0,0.21-0.01,0.43,0.01,0.64
		c0.03,0.43-0.02,0.87-0.01,1.3c0,0.04-0.02,0.06-0.05,0.08c-0.07,0.03-0.03,0.11-0.01,0.12c0.14,0.07-0.05,0.32,0.18,0.33
		c0.13,0.01,0.25,0.01,0.38,0.02c0.41,0.01,0.82,0.01,1.23,0.01c0.34,0,0.69-0.01,1.03-0.02c0.15-0.01,0.29,0.06,0.44,0.03
		c0.02-0.01,0.07,0.02,0.07,0.04c0.01,0.05-0.04,0.06-0.07,0.05c-0.08-0.01-0.18,0.04-0.24-0.06c-0.02-0.03-0.04-0.02-0.07-0.01
		c-0.25,0.03-0.5,0.06-0.75,0.09C26.88,11.73,26.88,11.73,26.88,11.74 M25.93,11.73c-0.24-0.14-0.45-0.02-0.66,0H25.93z
		 M24.58,11.61c0.03,0.07-0.01,0.13,0.05,0.13c0.09,0,0.19,0.05,0.27-0.04C24.81,11.62,24.68,11.76,24.58,11.61 M24.67,10.67
		c0.03-0.1-0.02-0.18-0.02-0.31C24.61,10.49,24.54,10.58,24.67,10.67"/>
	<path class="st0" d="M30.96,25.42c-0.02-0.01-0.05,0-0.03-0.04c0.02-0.01,0.04-0.02,0.06-0.02c0.23-0.02,0.45-0.05,0.68-0.06
		c0.53-0.02,1.06-0.01,1.59,0.03c0.25,0.02,0.49-0.02,0.74-0.02c0.17-0.01,0.33-0.02,0.54,0.01c-0.33,0.02-0.62,0.04-0.9,0.06
		c-0.02,0-0.05,0.01-0.06,0c-0.21-0.15-0.41,0.04-0.63-0.01c-0.21-0.05-0.44,0-0.66-0.01c-0.25-0.01-0.5,0.09-0.75,0.05
		C31.34,25.38,31.15,25.39,30.96,25.42"/>
	<path class="st0" d="M19.27,25.34c0.04,0,0.09,0.02,0.13-0.02c1.06-0.1,2.13,0.09,3.19-0.05c0,0.01,0,0.03,0,0.04
		c-0.29,0.02-0.59,0.04-0.88,0.06c-0.01,0-0.02,0.01-0.03,0c-0.19-0.14-0.39,0.03-0.58-0.01c-0.2-0.04-0.41-0.02-0.62-0.01
		c-0.09,0-0.18,0.01-0.28,0.02c-0.17-0.07-0.33,0.05-0.5,0.05c-0.21-0.04-0.41-0.04-0.62-0.01c0.01-0.02,0.02-0.03,0.03-0.05
		C19.17,25.35,19.22,25.35,19.27,25.34"/>
	<path class="st0" d="M6.37,30.56c0.44,0.24,0.68,0.63,0.85,1.09c-0.1-0.15-0.19-0.29-0.29-0.44c-0.08-0.11-0.11-0.3-0.31-0.28l0,0
		c0.01-0.04,0-0.05-0.03-0.03l0,0c0.02-0.04,0-0.05-0.03-0.03l0,0c0.01-0.04,0-0.05-0.03-0.03l0,0c-0.04-0.13-0.17-0.18-0.25-0.28
		C6.31,30.56,6.34,30.56,6.37,30.56"/>
	<path class="st0" d="M45.22,30.46c0.38-0.07,0.75,0,1.13,0.01c-0.48,0.01-0.96,0.04-1.44,0.1l-0.03,0
		c0.01-0.01,0.02-0.03,0.03-0.04l0.04-0.01c0.03-0.01,0.06-0.01,0.09-0.02C45.1,30.48,45.16,30.47,45.22,30.46"/>
	<path class="st0" d="M32.79,32.92c0.23,0.35,0.3,0.75,0.35,1.16c-0.09-0.21-0.09-0.45-0.2-0.66c0-0.11-0.07-0.17-0.15-0.22l0,0
		c0.01-0.11-0.04-0.21-0.06-0.31l0,0C32.75,32.9,32.77,32.91,32.79,32.92"/>
	<path class="st0" d="M5.72,30.37c-0.3-0.01-0.6,0.05-0.89,0.14c-0.07,0.02-0.15,0.06-0.2-0.04c0.29-0.1,0.59-0.18,0.91-0.16
		C5.61,30.31,5.67,30.32,5.72,30.37"/>
	<path class="st0" d="M18.85,25.33c-0.14,0.09-0.3,0.05-0.45,0.08c-0.11,0.02-0.22,0-0.34,0c-0.1,0-0.16-0.04-0.21-0.12
		c0.28,0.03,0.56,0.02,0.84,0.01C18.76,25.3,18.8,25.34,18.85,25.33"/>
	<path class="st0" d="M30.53,25.32c-0.03,0.1-0.12,0.08-0.18,0.09c-0.14,0.01-0.27,0.01-0.41,0c-0.07,0-0.13-0.04-0.14-0.12
		C30.03,25.36,30.28,25.27,30.53,25.32"/>
	<path class="st0" d="M44.82,30.49c-0.16,0.07-0.32,0.06-0.47,0.07c-0.07,0-0.07-0.07-0.12-0.09c0.03-0.06,0.08-0.01,0.11-0.02
		c0.13-0.02,0.25,0.01,0.37-0.01C44.75,30.44,44.79,30.44,44.82,30.49"/>
	<path class="st0" d="M57.63,22.24c-0.31,0.01-0.62,0.01-0.93,0.03C57.01,22.22,57.32,22.19,57.63,22.24"/>
	<path class="st0" d="M52.63,22.22c0-0.04,0.01-0.08-0.02-0.13c-0.03-0.05,0.02-0.03,0.05-0.04c0.07,0.11,0.18,0.12,0.29,0.13
		c0.06,0.01,0.12,0,0.18,0.03c-0.02,0.12-0.11,0.09-0.19,0.08C52.84,22.29,52.75,22.21,52.63,22.22L52.63,22.22z"/>
	<path class="st0" d="M8.31,25.34c0.07-0.1,0.16-0.02,0.24-0.03c0.1-0.01,0.23-0.04,0.33,0.03C8.79,25.37,8.7,25.4,8.6,25.41
		C8.5,25.42,8.39,25.44,8.31,25.34"/>
	<path class="st0" d="M7.54,32.23c-0.16-0.16-0.2-0.37-0.3-0.55C7.35,31.79,7.53,32.11,7.54,32.23"/>
	<path class="st0" d="M46.46,30.49c0.21-0.04,0.42-0.07,0.64-0.04C46.89,30.45,46.68,30.52,46.46,30.49"/>
	<path class="st0" d="M10.41,25.33c0.17-0.01,0.34-0.06,0.52-0.02c-0.17,0.02-0.35,0.04-0.52,0.06
		C10.42,25.36,10.41,25.35,10.41,25.33"/>
	<path class="st0" d="M7.93,32.84c-0.11-0.12-0.25-0.23-0.28-0.43C7.75,32.56,7.84,32.7,7.93,32.84"/>
	<path class="st0" d="M33.13,34.2c0.07,0.16,0.11,0.32,0.09,0.5C33.21,34.53,33.16,34.37,33.13,34.2"/>
	<path class="st0" d="M53.29,22.29c-0.04-0.03-0.11,0.03-0.13-0.06c0.13,0.02,0.26-0.07,0.38,0.04
		C53.46,22.3,53.37,22.28,53.29,22.29"/>
	<path class="st0" d="M8.15,33.26c-0.05-0.09-0.11-0.18-0.16-0.27c0.01-0.01,0.02-0.01,0.03-0.02c0.05,0.09,0.11,0.18,0.16,0.27
		C8.16,33.25,8.16,33.25,8.15,33.26"/>
	<path class="st0" d="M32.23,32.05c-0.09-0.02-0.17-0.05-0.19-0.16C32.16,31.89,32.21,31.95,32.23,32.05"/>
	<path class="st0" d="M6.03,30.44c0.02,0.04,0.08,0.01,0.1,0.06c-0.12,0.01-0.23-0.05-0.34-0.03l0,0c0.05-0.06,0.13-0.02,0.19-0.03
		C5.99,30.44,6.01,30.44,6.03,30.44"/>
	<path class="st0" d="M30.93,25.31c0,0.02,0,0.05,0,0.07c-0.07,0.03-0.1,0.01-0.09-0.06L30.93,25.31z"/>
	<path class="st0" d="M7.98,32.92c-0.01,0.01-0.01,0.02-0.01,0.03c-0.01-0.01-0.03-0.03-0.04-0.04c0,0,0.01-0.02,0.01-0.03
		C7.95,32.89,7.97,32.91,7.98,32.92"/>
	<path class="st0" d="M32.33,32.15c-0.03-0.02-0.06-0.03-0.06-0.07C32.33,32.06,32.33,32.1,32.33,32.15"/>
	<path class="st0" d="M8.19,33.29c0,0.01,0.01,0.02,0.01,0.03c0,0-0.01,0.01-0.01,0.01c0-0.01-0.01-0.02-0.01-0.03
		C8.18,33.3,8.18,33.29,8.19,33.29"/>
	<path class="st0" d="M4.39,30.62c-0.01,0.04-0.02,0.09-0.08,0.03C4.34,30.64,4.35,30.6,4.39,30.62"/>
	<path class="st0" d="M4.48,30.56c-0.02,0.02-0.02,0.06-0.07,0.03C4.43,30.56,4.44,30.53,4.48,30.56"/>
	<path class="st0" d="M52.62,21.97c-0.05,0-0.06-0.02-0.05-0.06C52.61,21.91,52.61,21.95,52.62,21.97"/>
	<path class="st0" d="M4.48,30.52c0.01,0.01,0.02,0.01,0.03,0.02c-0.01,0.01-0.02,0.01-0.03,0.02C4.46,30.55,4.46,30.53,4.48,30.52"
		/>
	<path class="st0" d="M32.27,32.08c-0.02,0-0.04,0-0.03-0.03C32.27,32.03,32.28,32.04,32.27,32.08"/>
	<path class="st0" d="M16.69,34.23c0.01,0,0.01,0,0.02-0.01c0,0,0,0-0.01,0C16.7,34.23,16.7,34.23,16.69,34.23
		C16.69,34.23,16.69,34.23,16.69,34.23"/>
	<path class="st0" d="M4.42,30.59c0.01,0.04,0,0.04-0.03,0.03C4.37,30.59,4.4,30.59,4.42,30.59"/>
	<path class="st1" d="M16.67,34.21c-0.01,0.01-0.02,0.01-0.02,0c0,0,0-0.01,0-0.01C16.65,34.21,16.66,34.21,16.67,34.21L16.67,34.21
		"/>
	<path class="st3" d="M6.59,30.9c0.04-0.01,0.05,0,0.03,0.03C6.6,30.93,6.59,30.92,6.59,30.9"/>
	<path class="st0" d="M32.69,32.86c-0.01-0.01-0.04-0.02-0.01-0.04c0,0,0.01,0.02,0.02,0.03C32.69,32.86,32.69,32.86,32.69,32.86"/>
	<path class="st0" d="M32.7,32.85c0.02,0,0.03,0.01,0.03,0.03l0,0c-0.03,0.03-0.03,0-0.04-0.02C32.69,32.86,32.69,32.86,32.7,32.85"
		/>
	<path class="st0" d="M6.22,30.53c-0.04,0-0.08,0.01-0.1-0.03C6.16,30.49,6.2,30.48,6.22,30.53"/>
	<path class="st0" d="M6.28,30.56c-0.03,0-0.06,0.01-0.07-0.03C6.24,30.53,6.28,30.52,6.28,30.56"/>
	<path class="st0" d="M27.1,33c0,0.01,0,0.01,0.01,0.02c0,0,0,0,0-0.01C27.11,33.01,27.11,33.01,27.1,33C27.11,33,27.1,33,27.1,33"
		/>
	<path class="st0" d="M58.62,35.98c-0.06,0.06,0.04,0.15-0.04,0.21c-0.12,0.02-0.1-0.07-0.08-0.12c0.03-0.1,0.08-0.2,0.14-0.29
		C58.63,35.85,58.63,35.92,58.62,35.98"/>
	<path class="st0" d="M58.68,35.56c-0.01-0.1-0.05-0.19-0.02-0.29C58.67,35.37,58.73,35.46,58.68,35.56"/>
	<path class="st0" d="M6.86,31.25c0.49,0.86,0.97,1.72,1.46,2.59c0.04,0.08,0.13,0.1,0.18,0.16c0.2,0.21,0.4,0.42,0.54,0.68
		c0.2,0.37,0.44,0.72,0.63,1.1c0.04,0.09-0.01,0.2,0.07,0.28c0.05,0.05,0.08,0.05,0.12,0c0.03-0.05,0.06-0.09,0.09-0.14
		c0.11-0.2,0.11-0.45,0.33-0.58c0.25-0.61,0.63-1.16,0.92-1.75c0.11-0.21,0.24-0.41,0.35-0.63c0.18-0.35,0.4-0.68,0.58-1.03
		c0.24-0.46,0.47-0.94,0.88-1.28c0.32-0.26,0.69-0.45,1.13-0.39c0.15,0.02,0.3,0.02,0.45,0.02c0.2,0.01,0.36,0.07,0.5,0.22
		c0.07,0.07,0.17,0.12,0.25,0.18c0.25,0.18,0.43,0.41,0.54,0.71c0.1,0.26,0.16,0.52,0.21,0.79c0.08,0.38,0.26,0.73,0.37,1.11
		c0.08,0.29,0.06,0.61,0.22,0.88c0.01,0.02,0.01,0.05-0.01,0.07l0,0l-0.01-0.01l-0.01,0c-0.01-0.01-0.01-0.01-0.02-0.02
		c0,0,0,0.01,0,0.01c0.01,0.01,0.01,0.01,0.02,0c-0.03,0.04-0.01,0.09,0.01,0.11c0.21,0.27,0.22,0.61,0.31,0.91
		c0.25,0.83,0.56,1.64,0.74,2.49c0.14,0.7,0.39,1.37,0.62,2.09c-0.8,0-1.6,0.01-2.39-0.01c-0.26,0-0.51-0.05-0.77-0.03
		c-0.09,0.01-0.08-0.06-0.1-0.11c-0.1-0.26-0.1-0.54-0.18-0.8c-0.17-0.54-0.37-1.06-0.5-1.61c-0.14-0.56-0.27-1.11-0.41-1.67
		c-0.06-0.24-0.11-0.48-0.16-0.72c-0.02-0.09-0.05-0.17-0.11-0.24c-0.17,0.34-0.33,0.68-0.51,1.02c-0.12,0.23-0.25,0.46-0.37,0.69
		c-0.43,0.83-0.83,1.68-1.3,2.49c-0.06,0.11-0.13,0.22-0.2,0.33c-0.29,0.44-0.69,0.7-1.23,0.72c-0.33,0.01-0.66,0.05-0.99-0.02
		c-0.22-0.04-0.43-0.12-0.56-0.3C8.42,39.38,8.23,39.22,8.12,39c-0.15-0.31-0.32-0.6-0.49-0.9c-0.11-0.2-0.24-0.38-0.32-0.59
		c-0.02-0.06-0.08-0.11-0.05-0.2c0.01-0.02-0.01-0.14-0.11-0.11c-0.05,0.01-0.04-0.04-0.05-0.06c-0.11-0.19-0.21-0.39-0.33-0.58
		C6.65,36.4,6.64,36.18,6.53,36c-0.23-0.41-0.44-0.84-0.65-1.26c-0.01-0.02-0.02-0.05-0.06-0.05c-0.07,0.26-0.11,0.54-0.22,0.81
		c-0.05-0.04,0.04-0.12-0.05-0.13c-0.08-0.01-0.05,0.06-0.06,0.1c-0.03,0.13-0.05,0.26-0.05,0.4c0,0.12-0.02,0.24-0.06,0.35
		c-0.2,0.6-0.31,1.23-0.49,1.84c-0.04,0.14-0.04,0.3-0.18,0.41c-0.04,0.03-0.09,0.13-0.02,0.21c0.03,0.04,0.01,0.09-0.01,0.13
		c-0.1,0.28-0.16,0.56-0.23,0.85c-0.02,0.09-0.05,0.13-0.15,0.13c-0.38-0.01-0.76,0.04-1.14-0.01c-0.17-0.02-0.36,0.01-0.54,0.02
		c-0.4,0.02-0.79-0.05-1.19-0.03c-0.12,0-0.12-0.04-0.09-0.14c0.05-0.18,0.1-0.37,0.14-0.55c0.01-0.04,0.01-0.08,0.05-0.09
		c0.22-0.08,0.17-0.28,0.16-0.44c0-0.09-0.01-0.17,0.02-0.25c0.23-0.79,0.47-1.58,0.72-2.36c0.13-0.41,0.29-0.82,0.39-1.23
		c0.26-1.02,0.61-2.01,0.87-3.03c0.04-0.18,0.11-0.34,0.2-0.5c0.03-0.05,0.05-0.13,0.14-0.1c-0.24,0.51-0.3,1.07-0.46,1.6
		c0.12-0.36,0.22-0.72,0.34-1.07c0.2-0.59,0.59-0.97,1.21-1.1c0.23-0.05,0.45-0.02,0.68-0.01l0,0c0.27,0.08,0.52,0.2,0.75,0.37l0,0
		c0,0.02,0.01,0.03,0.03,0.03l0,0c0,0.02,0.01,0.03,0.03,0.03l0,0c0,0.02,0.01,0.03,0.03,0.03l0,0C6.7,31.04,6.78,31.14,6.86,31.25
		 M2.56,36.03c0.01,0,0.01,0,0.02,0l0.42-1.45l-0.05-0.02c-0.06,0.25-0.24,0.45-0.25,0.73C2.7,35.54,2.61,35.79,2.56,36.03
		 M2.32,36.85c-0.02-0.01-0.04-0.01-0.07-0.02C2.17,37.2,2.09,37.56,2,37.93C2.12,37.57,2.26,37.22,2.32,36.85 M2.72,39.66
		c0-0.02,0-0.03,0-0.05c-0.23,0.04-0.48-0.12-0.69,0.05H2.72z M3.42,33.19c0.04-0.15,0.09-0.31,0.13-0.46
		C3.47,32.87,3.41,33.02,3.42,33.19 M3.17,33.84c-0.03,0.09-0.02,0.14-0.05,0.2c-0.03,0.04-0.05,0.1-0.01,0.18
		C3.16,34.08,3.2,33.98,3.17,33.84"/>
	<path class="st0" d="M54.99,22.37c1.03,0,2.07,0,3.1,0c0.04,0,0.08-0.01,0.12-0.02c0.32-0.11,0.64-0.18,0.98-0.13
		c0.31,0.05,0.62,0.07,0.93,0.18c0.13,0.04,0.27,0.08,0.37,0.16c0.41,0.34,0.93,0.58,1.1,1.16c0.06,0.19,0.13,0.38,0.2,0.57
		c0.05,0.13-0.04,0.25-0.03,0.38c0.03,0.25,0.04,0.49,0.01,0.74c-0.06,0.49-0.24,0.94-0.52,1.33c-0.14,0.2-0.34,0.39-0.56,0.54
		c-0.45,0.33-0.98,0.51-1.51,0.6c-0.48,0.08-0.97,0.14-1.46,0.11c-0.14-0.01-0.29,0.01-0.43,0c-0.42-0.01-0.84,0.02-1.25-0.02
		c-0.35-0.03-0.69,0.04-1.03,0.02c-0.25-0.01-0.49,0.01-0.74-0.01c-0.34-0.03-0.69-0.04-1.03,0c-0.29,0.03-0.6,0.06-0.88,0.01
		c-0.19-0.03-0.35-0.02-0.53-0.01c-0.03,0-0.07,0.02-0.08-0.06c0-0.05-0.12-0.04-0.15-0.01c-0.09,0.08-0.19,0.05-0.29,0.05
		c-0.71,0-1.43,0.01-2.14,0.01c-0.05,0-0.1,0.02-0.15-0.01c-0.01-0.03,0.01-0.05,0.02-0.07c0.37-0.48,0.7-0.99,1.11-1.43
		c0.32-0.35,0.6-0.72,0.87-1.1c0.03-0.04,0.06-0.08,0.12-0.08c0.56-0.02,1.13-0.07,1.7-0.03c0.14,0.01,0.29-0.01,0.43-0.02
		c0.46-0.03,0.92,0.01,1.37,0.04c0.73,0.05,1.45-0.03,2.18-0.04c0.12,0,0.24-0.01,0.36,0.04c0.14,0.05,0.27-0.02,0.41-0.02
		c0.22,0,0.44,0.02,0.67,0c0.21-0.02,0.34-0.14,0.44-0.31c0.06-0.11-0.06-0.4-0.19-0.43c-0.25-0.06-0.5-0.14-0.77-0.13
		c-0.51,0.02-1.01,0.05-1.52,0.01c-0.25-0.02-0.51,0-0.76-0.02c-0.53-0.06-1.06,0.04-1.59,0.03c-0.71-0.02-1.42,0.03-2.11-0.14
		c-0.69-0.17-1.29-0.5-1.76-1.03c-0.12-0.14-0.23-0.3-0.28-0.48c-0.19-0.62-0.27-1.24-0.13-1.89c0.05-0.24,0.11-0.46,0.24-0.67
		c0.04-0.06,0.06-0.12,0.14-0.15c0.03-0.01,0.15-0.07,0.05-0.16c-0.02-0.02,0.01-0.04,0.03-0.06c0.19-0.22,0.39-0.44,0.64-0.6
		c0.14-0.09,0.3-0.09,0.44-0.16c0.52-0.25,1.07-0.34,1.64-0.4c0.74-0.07,1.49-0.11,2.23-0.1c0.05,0,0.1,0,0.16,0
		c-0.02,0.02-0.03,0.03-0.04,0.03c-0.06,0.02-0.18-0.03-0.17,0.07c0,0.07,0.12,0.03,0.18,0.02c0.88-0.13,1.76-0.03,2.64-0.08
		c0.16-0.01,0.32-0.03,0.47,0.07c0.04,0.03,0.16,0.07,0.21-0.04c0.02-0.03,0.06-0.03,0.1-0.03c0.59,0.05,1.18-0.04,1.77-0.01
		c0.48,0.02,0.95-0.02,1.43,0.01c0,0.05-0.04,0.08-0.07,0.12c-0.34,0.48-0.78,0.88-1.09,1.39c-0.01,0.02-0.04,0.06-0.07,0.06
		c-0.26,0-0.24,0.24-0.33,0.39c-0.02,0.03-0.02,0.1-0.05,0.14c-0.15,0.2-0.31,0.4-0.47,0.6c-0.04,0.05-0.09,0.05-0.14,0.05
		c-0.62,0.06-1.24-0.03-1.86-0.02c-0.22,0-0.43,0.01-0.65,0.02c-0.22,0-0.44-0.02-0.66-0.04c-0.17-0.02-0.35,0.03-0.52,0.03
		c-0.85-0.01-1.69-0.01-2.54-0.01c-0.18,0-0.35,0.02-0.52,0.08c-0.16,0.06-0.25,0.17-0.23,0.35c0.01,0.06,0,0.12,0,0.18
		c-0.13-0.18-0.1-0.41,0.08-0.55c0.08-0.07,0.18-0.1,0.28-0.13c0.46-0.11,0.92-0.07,1.38-0.07c0.17,0,0.34,0.01,0.5-0.04
		c-0.51,0-1.03,0-1.54,0c-0.2,0-0.39,0.02-0.57,0.1c-0.21,0.09-0.3,0.26-0.31,0.48c0,0.21,0.03,0.41,0.25,0.52l0,0
		c0.2,0.14,0.42,0.15,0.65,0.15c0.1,0,0.21,0,0.31,0c0.15,0,0.29,0,0.44,0c0.06,0,0.12,0.02,0.18-0.02c0.01,0,0-0.03-0.01-0.04
		c-0.06-0.04-0.12-0.01-0.18,0c-0.14-0.03-0.28,0.05-0.42,0.02c0.4-0.1,0.81-0.12,1.21-0.12c0.43-0.01,0.87,0,1.3,0.01
		c0.07,0,0.15,0.02,0.22,0.04c-0.45,0.02-0.9-0.02-1.35,0.02c-0.02,0-0.04,0-0.06,0c-0.07-0.01-0.14-0.02-0.21,0
		c-0.13,0.09-0.28,0.01-0.42,0.04c0,0.01,0,0.03,0,0.04H54.99z M61.13,19.21c0.14-0.14,0.26-0.31,0.36-0.51
		c-0.13,0.02-0.24-0.05-0.37,0.03c0.09,0.01,0.17,0.01,0.29,0.02C61.23,18.88,61.16,19.04,61.13,19.21L61.13,19.21L61.13,19.21z
		 M57.74,21.12h-1.73C56.61,21.32,57.18,21.16,57.74,21.12 M58.62,21.18c0.33-0.01,0.66,0.01,0.98-0.06
		C59.28,21.16,58.94,21.08,58.62,21.18"/>
	<path class="st0" d="M32.87,33.46c0.14,0.5,0.22,1.01,0.23,1.53c0,0.03,0,0.06,0.02,0.09c0.29,0.41,0.17,0.84,0.09,1.28
		c0,0.01-0.02,0.02-0.04,0.04c0-0.03-0.01-0.05-0.01-0.06c0-0.02,0.01-0.04-0.03-0.05c0,0.3-0.05,0.59-0.22,0.85
		c-0.02,0.04-0.02,0.09-0.03,0.13c-0.01,0.03-0.01,0.09-0.03,0.1c-0.17,0.06-0.17,0.23-0.24,0.35c-0.18,0.28-0.38,0.53-0.64,0.74
		c-0.07,0.06-0.13,0.12-0.2,0.19c-0.17,0.18-0.4,0.27-0.6,0.4c-0.23,0.15-0.52,0.22-0.77,0.34c-0.25,0.12-0.52,0.16-0.78,0.22
		c-0.23,0.06-0.48,0.1-0.72,0.16c-0.29,0.07-0.59,0-0.88,0.1c-0.13,0.05-0.33,0.1-0.5,0c-0.03-0.02-0.1,0.01-0.15,0.02
		c-0.04,0-0.11,0.07-0.12-0.04c0-0.03-0.05-0.03-0.07-0.01c-0.08,0.1-0.19,0.06-0.29,0.05c-0.51,0-1.01,0.05-1.52,0
		c-0.11-0.01-0.22-0.08-0.32-0.08c-0.24,0.01-0.48-0.06-0.72-0.05c-0.24,0.01-0.48-0.02-0.71-0.1c-0.07-0.02-0.14-0.02-0.21-0.04
		c-0.32-0.08-0.63-0.21-0.93-0.36c-0.14-0.07-0.29-0.12-0.43-0.18c-0.23-0.1-0.45-0.2-0.65-0.38c-0.2-0.17-0.4-0.34-0.58-0.53
		c-0.21-0.21-0.42-0.44-0.53-0.7c-0.13-0.32-0.32-0.62-0.37-0.97c-0.12-0.82-0.27-1.64-0.08-2.47c0.09-0.38,0.22-0.75,0.33-1.13
		c0.03-0.11,0.13-0.17,0.19-0.27c0.17-0.33,0.39-0.63,0.67-0.88c0.03-0.03,0.05-0.06,0.1-0.05c0.05,0,0.1-0.01,0.06-0.08
		c-0.02-0.04,0.04-0.06,0.06-0.08c0.14-0.12,0.29-0.22,0.46-0.3c0.2-0.09,0.42-0.16,0.59-0.31c0.1-0.08,0.22-0.09,0.32-0.13
		c0.36-0.15,0.72-0.33,1.12-0.36c-0.01,0.05-0.06,0.03-0.08,0.06c-0.02,0.04-0.02,0.08,0.04,0.07c0.03,0,0.06-0.01,0.09-0.03
		c0.43-0.22,0.91-0.18,1.37-0.27c0.07-0.01,0.17-0.03,0.23,0.06c0.01,0.01,0.07,0.01,0.07,0c0.08-0.14,0.21-0.07,0.32-0.08
		c0.22-0.02,0.43-0.05,0.65-0.04c0.35,0.02,0.71-0.02,1.05,0.07c0.07,0.02,0.15,0.01,0.23,0.01c0.05,0,0.13-0.08,0.15,0.07
		c0.01,0.1,0.15,0.03,0.22-0.01c0.04-0.02,0.07-0.04,0.12-0.04c0.42,0.05,0.84,0.12,1.26,0.22c0.89,0.22,1.71,0.59,2.43,1.16
		c0.06,0.04,0.16,0.07,0.12,0.18c-0.06,0.02-0.07-0.04-0.11-0.06c-0.08-0.05-0.15-0.13-0.27-0.12c-0.01-0.07-0.07-0.08-0.12-0.09
		c0-0.08-0.07-0.07-0.14-0.11c0.05,0.07,0.08,0.1,0.13,0.11c0.03,0.05,0.07,0.08,0.12,0.09c0.17,0.18,0.36,0.33,0.52,0.52
		c0.02,0.03,0.03,0.08,0.09,0.05c0.06-0.02,0.02-0.07,0.04-0.1c0.12,0.12,0.21,0.28,0.31,0.42c0.02,0.02,0,0.07,0,0.1
		c-0.07-0.02-0.05-0.14-0.15-0.13c-0.01-0.01-0.02-0.03-0.02-0.03c-0.02,0.02-0.01,0.03,0,0.05c0.11,0.2,0.22,0.4,0.33,0.61l0,0
		C32.79,33.29,32.84,33.37,32.87,33.46 M30.11,36.19c-0.08,0.04-0.04,0.1-0.04,0.17c0.05-0.05,0.06-0.1,0.08-0.14
		c0.01-0.02,0.02-0.04,0.03-0.06c0.12-0.29,0.14-0.6,0.17-0.91c0.01-0.09-0.01-0.16-0.09-0.22c-0.08-0.05-0.13-0.13-0.14-0.24
		c-0.01-0.14-0.04-0.28-0.04-0.42c-0.01-0.17-0.08-0.37-0.18-0.52c-0.11-0.16-0.25-0.31-0.44-0.4c-0.15-0.07-0.3-0.13-0.45-0.19
		c-0.22-0.1-0.45-0.11-0.68-0.17c-0.14-0.04-0.3-0.06-0.47-0.05c-0.19,0.02-0.38-0.08-0.58-0.03c-0.05,0.01-0.11,0.04-0.16-0.01l0,0
		c-0.11-0.06-0.22-0.04-0.34-0.03c-0.21,0.01-0.41,0.01-0.62,0.03c-0.11,0.01-0.23,0.03-0.32,0c-0.17-0.06-0.33-0.02-0.5,0.02
		c-0.25,0.05-0.5,0.09-0.75,0.1c-0.14,0.01-0.29-0.02-0.42,0.06c-0.19,0.12-0.4,0.19-0.59,0.29c-0.22,0.12-0.36,0.34-0.44,0.54
		c-0.1,0.28-0.23,0.57-0.18,0.9c0.06,0.43-0.05,0.88,0.2,1.28c0.01,0.01,0.01,0.02,0.01,0.03c0.02,0.27,0.33,0.33,0.42,0.55
		c0.16-0.06,0.24,0.07,0.36,0.13c0.15,0.07,0.32,0.1,0.48,0.13c0.2,0.03,0.4-0.03,0.59,0.06c-0.02,0.03-0.08,0.05-0.05,0.09
		c0.03,0.04,0.08,0.01,0.11,0c0.05-0.02,0.09-0.05,0.15-0.04c0.13,0.04,0.27,0.01,0.4,0.02c0.1,0.01,0.22-0.06,0.29,0.06
		c0,0.01,0.03,0.01,0.04,0c0.19-0.1,0.39-0.05,0.59-0.07c0.25-0.02,0.5,0.06,0.75,0.01c-0.02,0.04-0.03,0.08,0.01,0.1
		c0.03,0.02,0.07-0.02,0.09-0.05c0.02-0.03,0.03-0.07,0.08-0.07c0.18,0.01,0.37-0.05,0.55-0.03c0.19,0.02,0.38-0.03,0.56-0.05
		c0.43-0.06,0.82-0.24,1.15-0.54c0.11-0.1,0.24-0.2,0.26-0.36c0.02-0.11,0.04-0.21,0.07-0.31c0.05-0.17,0.14-0.34,0.07-0.53
		c-0.01-0.03-0.01-0.06,0.03-0.07c0.02,0.18,0.01,0.36-0.04,0.53c-0.03,0.1-0.07,0.22-0.02,0.33
		C30.13,36.15,30.12,36.17,30.11,36.19 M30.31,30.96c0,0.01,0,0.01,0,0.02c0.01,0,0.01-0.01,0.02-0.01
		C30.32,30.97,30.32,30.97,30.31,30.96c-0.16-0.18-0.36-0.24-0.62-0.16C29.92,30.83,30.1,30.94,30.31,30.96 M29.9,36.57
		c-0.04,0.08-0.14-0.05-0.18,0.05c-0.06,0.14-0.2,0.21-0.28,0.33c-0.04,0-0.08,0.01-0.07,0.06c0.04,0.01,0.07-0.02,0.09-0.04
		c0.18-0.09,0.34-0.21,0.47-0.37c0.01-0.01,0.03-0.03,0.01-0.04C29.91,36.53,29.91,36.55,29.9,36.57 M28.44,30.54
		c0.36,0.11,0.56,0.11,0.62,0.03C28.86,30.56,28.67,30.55,28.44,30.54 M28.71,37.22c-0.2-0.15-0.33,0.02-0.48,0.08
		C28.4,37.28,28.55,37.27,28.71,37.22 M26.92,30.37c0.12,0.04,0.24,0.17,0.36,0H26.92z M27.63,37.34l0,0.02
		c0.09,0,0.19-0.01,0.28-0.01c0.04,0,0.06-0.03,0.05-0.06c-0.01-0.03-0.04-0.02-0.06-0.01C27.81,37.29,27.72,37.32,27.63,37.34
		 M29.98,36.5c0.04-0.03,0.08-0.07,0.06-0.12c0-0.02-0.04-0.03-0.05-0.01C29.96,36.41,29.95,36.45,29.98,36.5"/>
	<path class="st0" d="M60.17,31.71c0.19,0.2,0.42,0.37,0.57,0.61c0.03-0.05,0.06-0.09,0.09-0.14c0.1,0.15,0.2,0.3,0.3,0.44
		c0.01,0.01,0,0.04,0,0.06c-0.06,0-0.06-0.09-0.13-0.08c-0.02,0.01-0.02,0.03-0.01,0.05c0.42,0.7,0.57,1.46,0.6,2.26
		c0,0.08,0.02,0.14,0.06,0.21c0.08,0.15,0.14,0.3,0.13,0.48c-0.01,0.2,0.03,0.42-0.06,0.6c-0.14,0.29-0.12,0.64-0.32,0.9
		c-0.03,0.04-0.03,0.1-0.04,0.15c-0.01,0.06-0.01,0.12-0.1,0.14c-0.07,0.01-0.08,0.09-0.1,0.15c-0.11,0.34-0.38,0.58-0.6,0.83
		c-0.15,0.17-0.33,0.33-0.52,0.44c-0.27,0.15-0.54,0.33-0.84,0.43c-0.29,0.1-0.56,0.26-0.87,0.28c-0.06,0-0.11,0.04-0.17,0.07
		c-0.04,0.02-0.08,0.05-0.13,0.04c-0.29-0.06-0.52,0.15-0.8,0.14c-0.38-0.01-0.74,0.11-1.11,0.12c-0.11,0-0.27,0.03-0.33-0.01
		c-0.16-0.11-0.27,0.04-0.41,0.01c-0.15-0.04-0.32,0-0.48,0c-0.35,0.01-0.7,0.05-1.04-0.02c-0.5-0.11-1.01-0.08-1.51-0.16
		c-0.43-0.07-0.85-0.19-1.24-0.38c-0.23-0.12-0.47-0.2-0.7-0.31c-0.18-0.08-0.35-0.19-0.51-0.32c-0.2-0.17-0.4-0.34-0.58-0.52
		c-0.21-0.21-0.42-0.44-0.53-0.7c-0.12-0.31-0.31-0.6-0.36-0.94c-0.13-0.85-0.27-1.69-0.07-2.55c0.08-0.36,0.16-0.72,0.32-1.05
		c0.16-0.32,0.35-0.64,0.61-0.92c0.08-0.09,0.14-0.21,0.25-0.28c0.03-0.02,0.05-0.05,0.09-0.05c0.06,0,0.12,0,0.07-0.09
		c-0.02-0.03,0.03-0.05,0.06-0.06c0.15-0.12,0.29-0.23,0.48-0.31c0.2-0.09,0.43-0.17,0.61-0.31c0.09-0.07,0.21-0.09,0.31-0.12
		c0.37-0.14,0.72-0.33,1.12-0.35c-0.01,0.04-0.04,0.04-0.07,0.05c-0.02,0.01-0.03,0.03-0.02,0.05c0.01,0.03,0.03,0.04,0.06,0.03
		c0.03-0.01,0.06-0.02,0.09-0.03c0.45-0.22,0.94-0.19,1.42-0.27c0.05-0.01,0.12-0.04,0.15,0.05c0.01,0.02,0.09,0.03,0.1,0
		c0.06-0.12,0.16-0.07,0.24-0.07c0.19-0.01,0.38-0.04,0.57-0.03c0.35,0.01,0.7-0.03,1.05,0.04c0.18,0.03,0.36,0.06,0.54,0
		c0.01,0.05-0.07,0.06-0.02,0.11c0.03,0.03,0.06,0.03,0.1,0.02c0.47-0.14,0.91,0,1.36,0.11c0.19,0.05,0.39,0.09,0.58,0.14
		c0.05,0.01,0.12,0.01,0.14,0.09c-0.19,0.07-0.38-0.01-0.6-0.02c0.3,0.09,0.57,0.17,0.85,0.26c-0.05-0.13-0.23-0.1-0.26-0.24
		c0.12,0.03,0.24,0.05,0.35,0.1c0.55,0.23,1.08,0.51,1.54,0.9c0.11,0.09,0.21,0.21,0.3,0.33c-0.1-0.02-0.16-0.07-0.23-0.14
		C60.43,31.82,60.32,31.73,60.17,31.71c-0.02-0.06-0.06-0.09-0.12-0.09c-0.01-0.07-0.07-0.08-0.12-0.08
		c0.04,0.03,0.06,0.08,0.12,0.08C60.06,31.67,60.11,31.69,60.17,31.71 M57.95,36.96c0.14-0.05,0.25-0.14,0.35-0.25
		c0.05-0.05,0.13-0.13,0.01-0.2c0.01-0.1,0.15-0.13,0.13-0.24l0.01,0l0.01,0c-0.01,0.05,0.01,0.1-0.02,0.15
		c-0.01,0.02,0,0.04,0.03,0.05c0.01,0,0.04-0.01,0.04-0.02c0-0.11,0.12-0.15,0.13-0.25c0.04-0.07,0.07-0.14,0.07-0.22
		c0.08-0.25,0.1-0.51,0.11-0.76c0-0.08-0.01-0.13-0.08-0.19c-0.08-0.07-0.15-0.15-0.15-0.27c-0.01-0.13-0.04-0.26-0.04-0.4
		c0-0.17-0.09-0.37-0.18-0.52c-0.1-0.16-0.25-0.31-0.44-0.4c-0.14-0.07-0.29-0.12-0.43-0.19c-0.31-0.14-0.65-0.11-0.95-0.24
		c-0.26,0.1-0.5-0.09-0.76-0.01c-0.18,0.05-0.36-0.08-0.55-0.04c-0.18,0.03-0.37,0.01-0.56,0.03c-0.12,0.01-0.25,0.04-0.35,0
		c-0.18-0.06-0.34-0.01-0.51,0.02c-0.25,0.05-0.5,0.09-0.75,0.1c-0.14,0.01-0.29-0.02-0.42,0.06c-0.18,0.12-0.39,0.17-0.57,0.29
		c-0.23,0.14-0.36,0.37-0.46,0.61c-0.05,0.11-0.06,0.23-0.11,0.34c-0.04,0.1-0.08,0.2-0.06,0.31c0.05,0.32,0.03,0.64,0.05,0.96
		c0.01,0.27,0.16,0.46,0.24,0.69c0.06,0.18,0.3,0.21,0.36,0.39c0.01,0.03,0.02,0,0.03,0c0.09-0.04,0.19,0.01,0.23,0.06
		c0.15,0.17,0.36,0.16,0.56,0.2c0.2,0.05,0.42-0.02,0.63,0.06c-0.04,0.02-0.09,0.05-0.06,0.09c0.03,0.04,0.07,0.01,0.11,0
		c0.05-0.02,0.09-0.05,0.15-0.03c0.15,0.05,0.3,0.04,0.44,0.01c0.13-0.03,0.23,0.07,0.37,0.04c0.25-0.06,0.51-0.02,0.77-0.03
		c0.14,0,0.28,0.07,0.43,0.02c0.01,0.01,0.01,0.01,0.02,0.02c0.02,0.1,0.07,0.1,0.13,0.04c0.03-0.03,0.02-0.08,0.08-0.07
		c0.11,0.02,0.22-0.04,0.33-0.03c0.31,0.01,0.61-0.03,0.92-0.09c0.28-0.06,0.55-0.14,0.79-0.33c0.05-0.04,0.08-0.12,0.17-0.11
		c0.02,0.05-0.01,0.09-0.05,0.12c-0.08,0.06-0.14,0.14-0.21,0.22c-0.04,0-0.08,0.01-0.09,0.06C57.89,37,57.92,36.98,57.95,36.96
		 M56.72,37.3c0.16-0.02,0.32-0.02,0.47-0.08C57,37.07,56.87,37.23,56.72,37.3 M56.95,30.54c0.17,0.07,0.35,0.06,0.51,0.1
		c0.03,0.01,0.07,0,0.07-0.04c0-0.05-0.04-0.04-0.07-0.04C57.3,30.55,57.14,30.55,56.95,30.54 M55.77,30.38h-0.36
		C55.53,30.43,55.65,30.53,55.77,30.38 M56.16,37.33c0,0.01,0,0.02,0,0.02c0.08,0,0.16-0.01,0.24-0.01c0.03,0,0.05-0.02,0.04-0.05
		c-0.01-0.04-0.03-0.03-0.06-0.02C56.31,37.29,56.24,37.31,56.16,37.33 M57.74,37.05c-0.08-0.01-0.14,0.01-0.19,0.07
		C57.63,37.12,57.68,37.09,57.74,37.05 M59.88,31.5L59.88,31.5L59.88,31.5L59.88,31.5z M57.81,37.02
		C57.8,37.02,57.8,37.02,57.81,37.02c-0.01-0.01-0.02,0-0.02,0c0,0,0.01,0.01,0.01,0.01C57.8,37.03,57.8,37.03,57.81,37.02"/>
	<path class="st0" d="M17.16,25.27c0.2,0.02,0.39,0.01,0.59-0.01c0.02,0.08-0.04,0.05-0.07,0.06c-0.27,0.06-0.55,0.02-0.83,0.05
		c-0.38,0.04-0.77,0.05-1.15,0.06c-0.13,0.01-0.15-0.05-0.13-0.16c0.03-0.11-0.01-0.22-0.02-0.33c-0.02,0.12-0.01,0.24-0.02,0.36
		c-0.01,0.13,0.04,0.16,0.16,0.16c1.09,0,2.18,0,3.27,0c0.05,0,0.09-0.01,0.14-0.01c0.21,0,0.41,0,0.62,0
		c0.09,0.02,0.19,0.02,0.28,0c0.83,0,1.65,0,2.48,0.01c0.13,0,0.27,0,0.4,0c0.09,0,0.17,0,0.2-0.1c0.01-0.04,0.05-0.04,0.07-0.03
		c0.05,0.01,0.02,0.05,0.02,0.07c0,0.33-0.16,0.59-0.34,0.84c-0.06,0.09-0.12,0.18-0.18,0.27c-0.18,0.27-0.34,0.56-0.58,0.76
		c-0.23,0.19-0.36,0.44-0.52,0.67C21.49,28,21.44,28,21.38,28c-0.34,0-0.67-0.05-1.02,0c-0.15,0.02-0.33-0.06-0.5-0.04
		c-0.55,0.07-1.1,0.01-1.66,0.04c-0.23,0.01-0.48-0.01-0.72,0c-0.43,0.01-0.86,0.01-1.29,0c-0.69-0.01-1.38,0.04-2.07-0.02
		c-0.28-0.02-0.56,0.06-0.83,0.01c-0.22-0.04-0.43-0.05-0.64-0.02c-0.08,0.01-0.12-0.03-0.13-0.11c-0.03-0.17-0.03-0.35-0.01-0.52
		c0.02-0.28-0.01-0.56,0.03-0.85c0.06-0.45-0.05-0.89-0.03-1.34c0.01-0.24,0.08-0.47,0.02-0.71c-0.02-0.06,0.12-0.06,0.08-0.16
		c-0.13-0.31-0.04-0.64-0.05-0.97c-0.02-0.73-0.03-1.47-0.03-2.2c0-0.38,0.06-0.76,0.05-1.14c0-0.22-0.02-0.44-0.04-0.66
		c-0.03-0.22,0-0.43-0.02-0.65c-0.01-0.06,0.01-0.08,0.07-0.09c0.62-0.01,1.25-0.04,1.87-0.02c0.63,0.03,1.25,0.08,1.88,0.05
		c0.29-0.01,0.58-0.04,0.87-0.05c0.12,0,0.23-0.01,0.35,0.04c0.1,0.05,0.21-0.02,0.32-0.02c0.44,0,0.88,0,1.32,0
		c0.38,0,0.77-0.05,1.14-0.02c0.66,0.06,1.33-0.04,1.99,0.02c0.28,0.03,0.57,0.01,0.85,0.02c0.04,0,0.07,0,0.11,0
		c0.16,0.02,0.18,0.05,0.08,0.17c-0.28,0.38-0.53,0.78-0.83,1.15c-0.35,0.43-0.68,0.88-1.02,1.33c-0.06,0.07-0.11,0.1-0.21,0.1
		c-0.34-0.01-0.67-0.02-1.01-0.04c-0.34-0.02-0.68,0.02-1.02,0.03c-0.22,0.01-0.43-0.02-0.64-0.03c-0.28-0.01-0.56,0-0.84,0.01
		c-0.21,0-0.42-0.02-0.62,0c-0.2,0.02-0.4,0.03-0.59,0.01c-0.07-0.01-0.14,0.02-0.2-0.05c-0.01-0.01-0.13-0.07-0.14,0.06
		c0,0.03-0.03,0.02-0.05,0.02c-0.04,0-0.07,0-0.11,0c-0.41,0-0.46,0.07-0.37,0.47c0.01,0.06,0.01,0.12,0,0.17
		c0.95,0.03,1.9-0.09,2.85-0.05c-0.01,0.01-0.01,0.03-0.02,0.03c-0.06,0.02-0.16-0.02-0.15,0.05c0.01,0.09,0.11,0.04,0.17,0.04
		c0.85-0.13,1.7-0.03,2.55-0.08c0.1-0.01,0.21-0.02,0.3,0.07c0.04,0.03,0.14,0.06,0.2-0.03c0.02-0.03,0.05-0.04,0.08-0.03
		c0.43,0.04,0.87,0,1.3,0.01c0.03,0.06-0.02,0.08-0.04,0.11c-0.2,0.27-0.38,0.57-0.62,0.81c-0.22,0.22-0.36,0.48-0.55,0.71
		c-0.2,0.25-0.43,0.47-0.63,0.72c-0.02,0.03-0.04,0.06-0.08,0.06c-0.22,0-0.44,0.02-0.66,0.05c0.02-0.08,0.08-0.02,0.1-0.06
		c-0.08-0.09-0.31-0.11-0.45-0.01c-0.07,0.05-0.13,0.05-0.2,0.05c-0.77-0.01-1.54,0-2.31-0.02c-0.42-0.01-0.83,0-1.25-0.03
		c-0.17-0.02-0.36,0.04-0.54,0.02c-0.06,0-0.08,0.02-0.08,0.08c0,0.24,0,0.48-0.01,0.71c0,0.1,0.07,0.08,0.12,0.08
		c0.42,0,0.84-0.01,1.25-0.03C17.1,25.28,17.12,25.35,17.16,25.27 M17.64,24.24h-1.61c0.21,0.05,0.44,0.14,0.64,0.11
		C17,24.31,17.32,24.29,17.64,24.24 M18.39,24.32c0.34-0.02,0.67-0.04,0.99-0.06C18.99,24.2,18.48,24.22,18.39,24.32 M21.45,23.87
		c0.13-0.18,0.25-0.33,0.37-0.49c0.01-0.01,0.01-0.03,0.01-0.04c-0.01-0.02-0.02-0.04-0.03-0.05c-0.01,0.01-0.02,0.02-0.03,0.04
		c-0.02,0.12-0.12,0.18-0.2,0.25C21.49,23.63,21.43,23.72,21.45,23.87 M20.54,24.25c-0.24-0.01-0.49-0.02-0.68,0
		C20.05,24.27,20.29,24.26,20.54,24.25 M21.44,23.87c0,0-0.01-0.01-0.01-0.01c0,0-0.01,0.01-0.01,0.01c0,0,0.01,0.01,0.01,0.01
		C21.43,23.88,21.43,23.88,21.44,23.87"/>
	<path class="st0" d="M29.06,25.27c0.18,0.03,0.37,0.01,0.55,0c0.03,0.08-0.04,0.05-0.06,0.06c-0.26,0.06-0.52,0.02-0.79,0.05
		c-0.39,0.04-0.78,0.05-1.17,0.06c-0.12,0-0.16-0.04-0.13-0.15c0.03-0.12,0-0.23-0.03-0.34c-0.01,0.12,0,0.24-0.01,0.36
		c-0.01,0.13,0.03,0.16,0.16,0.16c1.08-0.01,2.16,0,3.24,0c0.05,0,0.09,0.01,0.14-0.02c0.34,0,0.68,0.01,1.02,0.01
		c0.92,0,1.84,0,2.76,0c0.1,0,0.2,0,0.25-0.11c0.01-0.03,0.04-0.03,0.06-0.03c0.04,0.01,0.02,0.04,0.02,0.06
		c-0.01,0.33-0.16,0.6-0.35,0.85c-0.03,0.04-0.05,0.08-0.08,0.11c-0.21,0.32-0.4,0.66-0.68,0.92c-0.22,0.19-0.35,0.44-0.51,0.66
		C33.41,27.98,33.37,28,33.31,28c-0.23-0.03-0.46-0.05-0.68-0.03c-0.28,0.04-0.55-0.05-0.83-0.02c-0.47,0.05-0.94,0.01-1.41,0.03
		c-0.17,0.01-0.34-0.01-0.5-0.01c-0.27,0.01-0.53-0.02-0.8,0.02c-0.04,0.01-0.09,0.02-0.12,0.01c-0.2-0.06-0.41-0.02-0.61-0.02
		c-0.77,0-1.54,0.02-2.3-0.01c-0.29-0.01-0.58,0.06-0.86,0.01c-0.21-0.04-0.42-0.05-0.62-0.02c-0.08,0.01-0.12-0.03-0.14-0.11
		c-0.04-0.18-0.02-0.36-0.01-0.53c0.01-0.28-0.01-0.55,0.03-0.83c0.06-0.44-0.05-0.88-0.03-1.33c0.01-0.24,0.09-0.48,0.02-0.73
		c-0.02-0.06,0.09-0.06,0.08-0.15c-0.13-1.02-0.05-2.05-0.09-3.07c-0.02-0.42,0.07-0.83,0.06-1.25c-0.01-0.23-0.03-0.46-0.04-0.7
		c-0.01-0.2-0.01-0.41-0.02-0.62c0-0.06,0.03-0.08,0.08-0.08c0.31,0.01,0.62-0.02,0.93,0c0.18,0.01,0.36-0.02,0.54-0.01
		c0.5,0.02,1,0.03,1.49,0.06c0.49,0.03,0.98-0.04,1.47-0.06c0.18-0.01,0.36-0.04,0.53,0.03c0.11,0.04,0.22-0.02,0.33-0.02
		c0.43,0.01,0.86,0,1.29,0.01c0.39,0.01,0.79-0.06,1.17-0.02c0.65,0.06,1.31-0.04,1.96,0.02c0.3,0.03,0.6,0.01,0.9,0.02
		c0.03,0,0.06-0.01,0.09,0c0.09,0.02,0.16,0.05,0.07,0.16c-0.29,0.37-0.54,0.78-0.84,1.15c-0.35,0.43-0.68,0.87-1.01,1.31
		c-0.07,0.09-0.14,0.12-0.24,0.12c-0.33-0.01-0.66-0.02-0.99-0.04c-0.35-0.02-0.7,0.03-1.05,0.03c-0.18,0-0.37,0.03-0.55-0.03
		c-0.09-0.03-0.19,0.02-0.29,0.01c-0.4-0.01-0.81-0.01-1.21,0c-0.21,0-0.42,0.02-0.62,0c-0.06,0-0.12,0.01-0.17-0.04
		c-0.02-0.02-0.12-0.07-0.14,0.05c-0.01,0.04-0.05,0.02-0.08,0.02c-0.11,0-0.22,0-0.33,0.01c-0.1,0-0.15,0.05-0.14,0.15
		c0.01,0.15,0.02,0.3,0.02,0.46c0,0.06,0.05,0.05,0.07,0.04c0.26-0.06,0.54-0.02,0.8-0.02c0.66,0,1.32-0.1,1.97-0.03
		c0,0,0,0.01,0,0.02c-0.05,0.02-0.16-0.03-0.15,0.07c0.01,0.07,0.11,0.03,0.16,0.02c0.85-0.13,1.71-0.04,2.56-0.08
		c0.1-0.01,0.2-0.02,0.29,0.07c0.04,0.03,0.14,0.06,0.2-0.03c0.02-0.04,0.06-0.04,0.1-0.04c0.41,0.03,0.83,0.01,1.24,0.01
		c0.02,0,0.04,0.01,0.08,0.01c-0.13,0.17-0.25,0.33-0.37,0.49c-0.1,0.13-0.18,0.28-0.3,0.39c-0.23,0.21-0.37,0.49-0.56,0.73
		c-0.2,0.26-0.44,0.48-0.64,0.74c-0.02,0.03-0.04,0.06-0.08,0.06c-0.22,0-0.44,0.01-0.66,0.05c0.02-0.08,0.08-0.03,0.1-0.07
		c-0.08-0.09-0.31-0.11-0.45-0.01c-0.07,0.05-0.13,0.05-0.2,0.05c-0.77-0.01-1.54,0-2.31-0.02c-0.42-0.01-0.83,0-1.25-0.03
		c-0.17-0.02-0.36,0.04-0.54,0.02c-0.06,0-0.08,0.02-0.08,0.08c0,0.24,0,0.48-0.01,0.71c0,0.1,0.07,0.08,0.12,0.08
		c0.42,0,0.84-0.01,1.25-0.03C29,25.27,29.02,25.35,29.06,25.27 M29.42,24.24h-1.48c0.21,0.05,0.42,0.13,0.63,0.11
		C28.85,24.32,29.14,24.3,29.42,24.24 M31.28,24.26c0-0.01,0-0.02,0-0.03c-0.29,0-0.58,0-0.86,0c-0.05,0-0.1,0.01-0.1,0.09
		C30.64,24.3,30.96,24.28,31.28,24.26 M33.35,23.87c0.15-0.15,0.21-0.33,0.34-0.46C33.55,23.53,33.35,23.6,33.35,23.87 M32.54,24.25
		c-0.2-0.02-0.51-0.02-0.77,0C32.03,24.27,32.34,24.27,32.54,24.25 M33.33,23.88C33.34,23.88,33.34,23.88,33.33,23.88
		c0.01-0.01,0-0.02,0-0.02C33.33,23.87,33.32,23.87,33.33,23.88C33.32,23.88,33.33,23.88,33.33,23.88"/>
	<path class="st0" d="M45.13,27.26c-0.79,0.32-1.62,0.49-2.47,0.51c-0.14,0-0.27,0.1-0.4,0.13c-0.53,0.12-1.07,0.16-1.6,0.09
		c-0.36-0.05-0.71,0.06-1.07-0.01c-0.16-0.03-0.33-0.02-0.49,0.03c-0.02,0.01-0.06,0.01-0.08,0c-0.14-0.12-0.3-0.07-0.44-0.05
		c-0.47,0.06-0.94,0.01-1.41,0.03c-0.24,0.01-0.49,0.03-0.73,0c-0.08-0.01-0.12-0.02-0.11-0.11c0.02-0.25-0.05-0.5,0.02-0.75
		c0.02-0.08-0.02-0.18-0.02-0.27c0-0.68-0.01-1.36,0.01-2.04c0.01-0.21,0.03-0.41-0.01-0.61c-0.02-0.1-0.01-0.2,0.04-0.3
		c0.04-0.07,0.02-0.16,0-0.24c-0.08-0.52-0.02-1.04,0-1.56c0-0.07,0.03-0.1,0.1-0.1c0.29,0.02,0.58-0.05,0.88-0.06
		c0.26-0.01,0.52,0.11,0.78,0.03c0.18,0.16,0.37-0.03,0.57,0.01c0.21,0.04,0.44,0.02,0.66,0.01c0.13-0.01,0.16,0.04,0.16,0.16
		c0,0.62,0.06,1.24,0.02,1.86c-0.02,0.31-0.03,0.62-0.05,0.92c-0.01,0.09,0.02,0.18,0.02,0.28c0,0.06,0.04,0.04,0.08,0.04
		c0.12-0.01,0.24-0.02,0.36-0.02c0.46-0.01,0.93-0.03,1.39,0c0.33,0.02,0.67,0.01,1,0.05c0.39,0.05,0.78-0.04,1.15-0.18
		c0.17-0.06,0.37-0.1,0.52-0.18c0.32-0.19,0.62-0.43,0.8-0.79c0.17-0.35,0.16-0.69,0.15-1.06c-0.01-0.35-0.17-0.61-0.37-0.85
		c-0.22-0.27-0.48-0.49-0.81-0.65c-0.42-0.2-0.86-0.2-1.29-0.21c-0.57-0.01-1.14,0-1.7-0.02c-0.53-0.02-1.06-0.01-1.59,0
		c-0.39,0.01-0.79-0.01-1.18-0.02c-0.42-0.01-0.84,0.05-1.26,0.01c-0.07-0.01-0.14,0-0.22-0.04c-0.06-0.03-0.19-0.06-0.26,0.05
		c-0.03,0.05-0.09,0.02-0.15,0.01c0.23-0.32,0.43-0.65,0.69-0.93c0.3-0.32,0.54-0.67,0.8-1.02c0.19-0.26,0.38-0.52,0.58-0.77
		c0.03-0.04,0.06-0.05,0.1-0.05c0.45-0.04,0.9-0.03,1.35-0.03c-0.01,0.02-0.01,0.03-0.02,0.03c-0.05,0.02-0.14-0.01-0.13,0.06
		c0.01,0.07,0.1,0.04,0.15,0.03c0.71-0.13,1.43-0.03,2.15-0.08c0.13-0.01,0.27-0.04,0.39,0.07c0.03,0.02,0.13,0.06,0.17-0.03
		c0.01-0.03,0.05-0.04,0.08-0.03c0.51,0.04,1.03,0,1.53,0.11c0.51,0.12,1.03,0.22,1.49,0.51c0.09,0.06,0.21,0.09,0.31,0.14
		c0.08,0.04,0.16,0.05,0.18,0.19c0.02,0.13,0.21,0.14,0.32,0.16c0.08,0.02,0.14,0.04,0.2,0.08c0.59,0.44,1.04,0.99,1.33,1.67
		c0.15,0.35,0.22,0.71,0.29,1.08c0.2,1.11-0.08,2.11-0.62,3.07c-0.09,0.15-0.21,0.28-0.32,0.42c-0.01,0.02-0.03,0.06-0.07,0.03
		c0.04-0.12,0.12-0.22,0.19-0.33c0.14-0.19,0.26-0.4,0.3-0.63c0.11-0.13,0.14-0.29,0.18-0.44c-0.06,0.15-0.16,0.28-0.18,0.44
		c-0.12,0.11-0.16,0.27-0.25,0.4c-0.15,0.21-0.3,0.42-0.48,0.61c-0.02,0.02-0.07,0.04-0.03,0.09c0.03,0.05,0.06,0.02,0.08,0
		c0,0,0.03,0.02,0.04,0.03c-0.19,0.19-0.4,0.36-0.6,0.54c-0.02,0.02-0.07,0.02-0.1,0.02c0.02-0.09,0.12-0.1,0.15-0.18
		c0.01-0.01,0.01-0.03,0.02-0.04c0.01-0.01,0.03-0.02,0.03-0.03c-0.02-0.03-0.03,0-0.04,0.01c-0.01,0.01-0.02,0.02-0.04,0.02
		c-0.09,0.07-0.2,0.12-0.24,0.24c-0.01,0.04-0.05,0.1-0.12,0.09c0.01-0.02,0.03-0.04,0.04-0.06c0.01-0.01,0.03-0.02,0.03-0.02
		c-0.02-0.02-0.03-0.01-0.04,0.01c-0.16,0.09-0.31,0.18-0.47,0.28c-0.01,0.01-0.06,0.01-0.04,0.04c0.01,0.02,0.04,0,0.06-0.02
		c0.08-0.02,0.16-0.05,0.24-0.07c0,0.02-0.01,0.04-0.01,0.05l0.01,0.01l-0.01-0.01c-0.04,0.01-0.07,0.03-0.09,0.07
		c-0.41,0.29-0.9,0.39-1.37,0.56c0,0-0.01,0-0.02,0c-0.33-0.03-0.63,0.15-0.95,0.18c-0.1,0.01-0.19,0.02-0.29-0.01
		c0,0,0-0.01,0-0.01c0.74-0.09,1.47-0.22,2.14-0.55c0.09-0.03,0.19-0.03,0.19-0.17c-0.03,0.01-0.05,0.02-0.06,0.02
		C45.25,27.2,45.19,27.23,45.13,27.26 M47.73,21.83c0.1,0.32,0.17,0.62,0.2,0.95C48.04,22.52,47.94,22.01,47.73,21.83 M46.8,20.33
		c0.14,0.16,0.25,0.3,0.37,0.44c0.02,0.03,0.06,0.06,0.09,0.02c0.03-0.03-0.01-0.06-0.03-0.08C47.1,20.59,46.99,20.45,46.8,20.33
		 M44.47,18.97c0.18,0.07,0.34,0.25,0.58,0.16C44.87,19.03,44.66,19.02,44.47,18.97 M48,23.29c-0.04-0.08,0.05-0.19-0.05-0.28
		C47.96,23.12,47.94,23.21,48,23.29 M47.82,24.34V24.3c-0.01,0.01-0.02,0.02-0.02,0.03c0,0.01,0,0.02,0,0.03
		C47.81,24.35,47.82,24.34,47.82,24.34 M47.79,24.46c0-0.01,0-0.02-0.01-0.02c0,0-0.01,0.01-0.01,0.01c0,0.01,0,0.02,0.01,0.02
		C47.78,24.47,47.79,24.46,47.79,24.46 M47.76,24.55c0,0,0-0.01,0-0.01c0-0.01-0.01-0.01-0.01,0
		C47.74,24.55,47.75,24.55,47.76,24.55C47.75,24.55,47.75,24.55,47.76,24.55 M45.43,27.13c0,0-0.01-0.01-0.01-0.01
		c0,0.01-0.01,0.01-0.01,0.02c0,0,0.01,0.01,0.01,0.01C45.43,27.14,45.43,27.14,45.43,27.13"/>
	<path class="st0" d="M44.91,30.58c0.76,0,1.53,0,2.29,0.01c0.1,0,0.16-0.05,0.18-0.19c0.07,0.12,0.12,0.21,0.09,0.32
		c-0.04,0.17-0.09,0.33-0.2,0.47c-0.14,0.18-0.22,0.42-0.4,0.55c-0.27,0.19-0.38,0.5-0.59,0.73c-0.17,0.18-0.37,0.36-0.48,0.61
		c-0.06,0.13-0.22,0.07-0.32,0.07c-0.18-0.01-0.35-0.01-0.52,0.01c-0.13,0.01-0.26-0.01-0.39,0c-0.29,0.02-0.58,0.01-0.87,0
		c-0.29-0.01-0.58,0.02-0.88-0.01c-0.15-0.01-0.18,0.02-0.14,0.17c0.01,0.03,0.02,0.08,0.01,0.11c-0.11,0.32,0.03,0.64,0,0.96
		c-0.01,0.06-0.01,0.12-0.03,0.18c-0.04,0.2-0.01,0.4,0.03,0.59c0.05,0.23-0.02,0.46-0.04,0.69c-0.01,0.17,0.03,0.33,0.01,0.5
		c-0.03,0.19,0,0.38,0,0.57c0,0.2,0.01,0.39,0.02,0.59c0.01,0.18,0.02,0.35-0.01,0.53c-0.11,0.53,0.04,1.06,0.03,1.6
		c0,0.15-0.04,0.21-0.18,0.18c-0.23-0.04-0.46,0.02-0.69,0c-0.27-0.02-0.54-0.02-0.81-0.06c-0.29-0.04-0.59,0.02-0.88,0.06
		c-0.2,0.02-0.4,0-0.59-0.04c-0.06-0.01-0.07-0.06-0.07-0.1c0.01-0.36,0-0.72,0.02-1.08c0.01-0.16,0-0.33-0.03-0.5
		c-0.02-0.1-0.04-0.21,0.03-0.31c0.02-0.03,0.01-0.09,0.01-0.14c-0.06-0.42-0.02-0.85,0.01-1.26c0.03-0.31-0.05-0.6-0.04-0.9
		c0.02-0.54-0.02-1.07,0.03-1.61c0.02-0.22-0.01-0.44-0.03-0.66c-0.01-0.07-0.03-0.08-0.1-0.08c-0.23-0.02-0.45,0-0.68,0
		c-0.11,0-0.24,0.03-0.36,0.01c-0.04-0.01-0.09,0.01-0.12-0.04c-0.02-0.03-0.06-0.02-0.08-0.01c-0.18,0.1-0.45,0.12-0.64,0.05
		c-0.05-0.02-0.1-0.01-0.15-0.01c-0.27,0-0.54,0-0.81,0.01c-0.29,0.01-0.57,0.04-0.86,0.05c-0.23,0.01-0.46,0-0.72,0
		c0.1-0.13,0.2-0.26,0.3-0.38c0.01-0.01,0.03-0.03,0.04-0.02c0.16,0.12,0.19-0.05,0.22-0.12c0.23-0.48,0.61-0.84,0.89-1.28
		c0.05-0.08,0.09-0.19,0.22-0.17c0.01,0,0.05-0.03,0.05-0.05c0.05-0.32,0.34-0.48,0.47-0.74c0.02-0.05,0.08-0.03,0.13-0.03
		c0.41,0.02,0.83-0.03,1.24,0.03c0.12,0.02,0.24,0.01,0.36,0c0.05,0,0.1,0,0.13,0.04c0.09,0.13,0.19,0.05,0.28,0
		c0.04-0.02,0.07-0.05,0.12-0.05c0.34,0.04,0.68-0.05,1.02,0.01c0.27,0.04,0.54,0,0.8,0.01c0.8,0.03,1.6,0.04,2.39,0.01
		c0.18-0.01,0.37,0,0.56,0.02c-0.36,0.09-0.74,0.1-1.11,0.14c-0.2,0.01-0.4-0.03-0.63,0.01c0.23,0.03,0.43,0,0.63,0.01
		c0.61,0.01,1.22,0.02,1.83,0C44.89,30.58,44.9,30.58,44.91,30.58 M40.84,30.58h0.89C41.43,30.4,41.14,30.56,40.84,30.58
		 M40.29,30.58l-0.01-0.07c-0.21,0.02-0.42,0.04-0.62,0.06C39.87,30.59,40.08,30.61,40.29,30.58 M38.37,30.5
		c-0.13-0.04-0.24,0.02-0.37,0.03C38.14,30.58,38.26,30.64,38.37,30.5 M39.01,30.58c0.11,0.01,0.24,0.01,0.34,0
		C39.25,30.57,39.12,30.56,39.01,30.58"/>
	<path class="st0" d="M8.92,25.4c0.07-0.09,0.17-0.04,0.26-0.06c0.37-0.09,0.75-0.01,1.12,0.01c-0.44-0.03-0.88,0.06-1.32,0.07
		c0,0.02,0,0.03,0,0.05c0.19,0,0.39,0,0.58,0c0.44,0,0.89,0.01,1.33,0c0.09,0,0.25,0.09,0.26-0.12c0-0.02,0.08-0.01,0.11,0.06
		c0.07,0.19,0.02,0.38-0.08,0.52c-0.13,0.2-0.22,0.44-0.41,0.57c-0.25,0.18-0.33,0.5-0.58,0.68c-0.03,0.02-0.04,0.07-0.06,0.11
		c-0.03,0.05-0.03,0.12-0.12,0.12c-0.06,0-0.08,0.06-0.1,0.11c-0.15,0.44-0.49,0.57-0.91,0.51c-0.27-0.04-0.54,0.07-0.81-0.03
		c-0.05-0.02-0.11,0.02-0.16,0.02c-0.3,0-0.6-0.02-0.91,0c-0.26,0.02-0.52-0.07-0.78,0C6.33,28,6.27,28,6.24,27.98
		c-0.11-0.07-0.22-0.02-0.34-0.01c-0.16,0.02-0.33,0.04-0.49,0.01c-0.3-0.06-0.58,0-0.87,0.02c-0.15,0.01-0.3-0.1-0.45-0.02
		c-0.07-0.14-0.15-0.01-0.23-0.02c-0.54-0.03-1.08,0.03-1.63,0.02c-0.23,0-0.45-0.08-0.68-0.04c-0.11,0.02-0.17-0.04-0.18-0.18
		c-0.05-0.5-0.07-1-0.05-1.49c0.01-0.23,0-0.47,0.05-0.71c0.03-0.17-0.01-0.35-0.03-0.52c-0.02-0.21-0.01-0.42-0.01-0.63
		c0-0.26,0-0.51,0.01-0.77c0.01-0.32-0.08-0.64,0.01-0.96c0.02-0.08-0.01-0.17-0.01-0.26c-0.03-0.36-0.01-0.71,0.05-1.07
		c0.01-0.05-0.01-0.11-0.02-0.17c-0.07-0.69-0.04-1.38,0-2.07c0.01-0.14,0.01-0.28,0-0.42c-0.01-0.09,0.02-0.12,0.11-0.12
		c0.22,0.02,0.44,0,0.67,0.01c0.3,0.01,0.62,0.05,0.93-0.04c0.01,0,0.03,0,0.05,0c0.17,0.01,0.32,0.07,0.5,0
		c0.23-0.08,0.46,0.04,0.7,0.03c0.07,0,0.16-0.07,0.21-0.01c0.04,0.05-0.03,0.14-0.02,0.21c0.02,0.14-0.03,0.27,0.02,0.41
		c0.04,0.12,0,0.23,0,0.35c0.01,0.37,0.1,0.73,0.03,1.1c-0.04-0.01-0.01-0.11-0.08-0.08c-0.07,0.02-0.03,0.08-0.02,0.12
		c0.13,0.47,0.04,0.95,0.08,1.43c0,0.04,0.01,0.09-0.04,0.12c-0.05,0.04-0.09,0.1,0.01,0.14c0.04,0.02,0.03,0.05,0.03,0.08
		c-0.03,0.27,0.03,0.55,0.01,0.82c-0.03,0.32,0.04,0.64-0.03,0.96c-0.02,0.11-0.02,0.23,0.01,0.34c0.01,0.07,0.01,0.07-0.06,0.1
		c-0.08,0.03-0.06,0.09-0.03,0.14c0.06,0.12,0.13,0.23,0.09,0.37c-0.02,0.06,0.05,0.06,0.09,0.06c0.24,0.01,0.47,0.06,0.71,0.02
		c0.08-0.01,0.16-0.01,0.23,0c0.75,0.04,1.5,0.04,2.25,0.01c0.15-0.01,0.3,0,0.44,0.02c-0.24,0.13-0.51,0.04-0.75,0.16
		c0.28,0.01,0.55,0.02,0.82,0c0.17,0.03,0.34,0.01,0.51,0.01C8.88,25.46,8.92,25.45,8.92,25.4 M6.06,25.46
		c-0.24-0.13-0.66-0.12-0.86,0H6.06z M4.72,25.41c-0.12-0.1-0.31,0.12-0.39-0.11c0.02,0.05-0.05,0.14,0.03,0.14
		C4.47,25.46,4.61,25.5,4.72,25.41 M4.41,24.1c0.03-0.1,0.02-0.18-0.04-0.26C4.28,23.94,4.34,24.01,4.41,24.1 M4.34,25.04
		c0.02-0.19,0.01-0.36,0-0.45C4.33,24.68,4.32,24.85,4.34,25.04"/>
</g>
</svg>
